<svg xmlns="http://www.w3.org/2000/svg" viewBox="0 0 2011 251"><defs></defs><g id="Layer_3" data-name="Layer 3"><path class="cls-1" d="M198.87,9.83,145,141.18h-2.71L88.36,9.83H10v231.9H71.6v-135h1.81l51.64,133.16h37.14l51.63-132.26h1.81V241.73h61.6V9.83Z"></path><path class="cls-1" d="M651.51,153.46Q638.44,142,611.71,137.1l-35.33-6.34q-10-1.81-13.41-5.1t-3.34-7.13q-.12-5.43,5.66-8.38a33,33,0,0,1,25.19-.85,21.5,21.5,0,0,1,8.44,6,15.85,15.85,0,0,1,3.74,9.17h57.52Q659,96.79,637.25,81.16T577.74,65.54q-24.79,0-42.85,6.62T507.14,91.41q-9.67,12.63-9.56,30.74-.12,20.5,13.13,33.52t39.86,17.67l30.8,5.43q10.18,1.81,15,4.76t4.93,7.92q-.12,5.45-5.72,8.38t-14.21,2.95q-10.65,0-17.61-4.48a17.55,17.55,0,0,1-8.21-12.74h-62q2.6,26.73,25.08,43t62.33,16.31q24.12,0,43-7.42t29.78-21.06q10.92-13.63,11-32.21Q664.59,165,651.51,153.46Z"></path><path class="cls-1" d="M673.12,67.8v45.29H787.71V67.8ZM781.83,194.85q-1.82.45-5.61,1.13a37.59,37.59,0,0,1-6.63.68,16.25,16.25,0,0,1-6.68-1.18,7.91,7.91,0,0,1-3.85-3.63,13.21,13.21,0,0,1-1.24-6.06V26.13H695.31V191.68q-.22,18.23,7.14,30.35t22,17.72q14.61,5.59,36.12,4.47a107.05,107.05,0,0,0,18.41-2.38c5.16-1.2,9.15-2.22,11.94-3.05Z"></path><path class="cls-1" d="M917.7,9.83v231.9h21.17V9.83Z"></path><path class="cls-1" d="M1113.2,94.3a50.54,50.54,0,0,0-20.72-21.46q-13.31-7.31-30.85-7.3-19.14,0-32.11,8.09a48.87,48.87,0,0,0-19.07,21.46h-1.82V67.8H989.05V241.73h20.15V133q0-15.17,6.17-26.21a42.68,42.68,0,0,1,16.82-16.93A49.49,49.49,0,0,1,1056.53,84q20,0,32,12.46t12,33.86V241.73h20.15V129.06Q1120.62,108.45,1113.2,94.3Z"></path><path class="cls-1" d="M1269.91,67.8l-51.63,147.32h-1.59L1165.06,67.8H1143.2l63.53,173.93h21.51L1291.77,67.8Z"></path><path class="cls-1" d="M1343.13,13.17a15.44,15.44,0,0,0-21.28,0,13.6,13.6,0,0,0-4.48,10.25,13.58,13.58,0,0,0,4.48,10.24,15.44,15.44,0,0,0,21.28,0,13.58,13.58,0,0,0,4.48-10.24A13.6,13.6,0,0,0,1343.13,13.17Zm-21,54.63V241.73h20.27V67.8Z"></path><path class="cls-1" d="M1495.05,165.75q-10.92-11.55-32.78-16.87L1436,142.42q-16.2-4.06-24-11t-7.75-18.17q0-13.24,11.32-21.63t29-8.38q11.78,0,19.76,3.74a35,35,0,0,1,13,10.08,48.41,48.41,0,0,1,7.7,14.15l18.46-5.21q-6.35-18.9-20.67-29.72T1444.6,65.42q-17.55,0-31.25,6.23t-21.51,17.16a42.37,42.37,0,0,0-7.82,25.3q0,17.45,10.88,29.22t33.51,17.21l28.43,6.8q14.27,3.39,21.28,10.58a24.39,24.39,0,0,1,7,17.72q0,13.59-12,22.59t-32.05,9q-17.88,0-28.81-7.93t-14.67-23.44l-19.36,4.75q4.63,21.75,21.18,33.24t42,11.49q19.13,0,33.68-6.51t22.71-18a43.94,43.94,0,0,0,8.15-26.15Q1506,177.3,1495.05,165.75Z"></path><path class="cls-1" d="M1563,13.17a15.46,15.46,0,0,0-21.29,0,13.63,13.63,0,0,0-4.47,10.25,13.61,13.61,0,0,0,4.47,10.24,15.46,15.46,0,0,0,21.29,0,13.61,13.61,0,0,0,4.47-10.24A13.63,13.63,0,0,0,1563,13.17ZM1542,67.8V241.73h20.26V67.8Z"></path><path class="cls-1" d="M1748.12,108.17q-9.06-20.2-25.25-31.48t-37.59-11.27q-16,0-26.44,5.61A51.67,51.67,0,0,0,1642,84.9a75.85,75.85,0,0,0-9.8,16.08h-1.81V9.83h-20.27v231.9h19.59V209.46h2.49a78.87,78.87,0,0,0,10,16.25,52.44,52.44,0,0,0,17,14q10.59,5.66,26.44,5.66,21.29,0,37.42-11.32t25.14-31.59q9-20.26,9-47.22T1748.12,108.17Zm-17.43,83.28q-6.24,16.32-18.24,25.88t-29.32,9.57q-16.87,0-28.71-9.23t-18.11-25.48q-6.3-16.24-6.29-37.31,0-20.83,6.23-36.86t18.06-25.14q11.84-9.1,28.82-9.11,17.43,0,29.44,9.45t18.17,25.54q6.16,16.08,6.17,36.12Q1736.91,175.15,1730.69,191.45Z"></path><path class="cls-1" d="M1795.36,9.83v231.9h20.16V9.83Z"></path><path class="cls-1" d="M1979.56,198.36a45.77,45.77,0,0,1-9.68,14.33A46.58,46.58,0,0,1,1954.14,223a56.56,56.56,0,0,1-21.69,3.86q-18.1,0-31.36-8.5a55.37,55.37,0,0,1-20.44-24,73.72,73.72,0,0,1-5.5-17.3H1855a96.34,96.34,0,0,0,7.92,25.23q9.69,20.2,27.46,31.59t42.12,11.38q17.44,0,30.86-5.6a66.37,66.37,0,0,0,22.42-14.89,56.87,56.87,0,0,0,13-20.27Zm17.32-85.43a75.6,75.6,0,0,0-16.58-26.62,68,68,0,0,0-23.61-15.73,74,74,0,0,0-27.29-5.16q-22.55,0-39.69,11.61t-26.84,32.05q-9.67,20.43-9.68,46.71c0,1.68,0,3.35.09,5,1.93,0,7.83,0,13.84,0H2003v-10Q2003,128.95,1996.88,112.93ZM1873.62,143a71.28,71.28,0,0,1,7-27.06A60.22,60.22,0,0,1,1900.3,92.6q12.57-8.84,29.1-8.83,15.61,0,27.57,7.81a53.53,53.53,0,0,1,18.68,21.23,66.24,66.24,0,0,1,6.74,30.18Z"></path><circle class="cls-1" cx="391.23" cy="151.71" r="93.2"></circle></g></svg>