<svg fill="#ffffff" xmlns="http://www.w3.org/2000/svg" viewBox="0 0 3616 1325"><defs></defs><g id="Layer_2" data-name="Layer 2"><path d="M1543.7,1230.25q-1.23,2.07-2.52,4.11c-.21.35-.43.69-.65,1,.19-.55.39-1.1.57-1.65q1-2.89,2-5.93Q1543.4,1229,1543.7,1230.25Z"></path><path d="M1543.7,1230.25q-1.23,2.07-2.52,4.11c0-.2-.06-.41-.08-.61q1-2.89,2-5.93Q1543.4,1229,1543.7,1230.25Z"></path><path class="cls-1" d="M1517.91,271.45l-.94.45-8.83,4.21q-4.87,2.29-9.7,4.7l0,0c-242.71,104.92-364.69,240.84-364.69,240.84,152.23-122.55,288.73-174.87,345.2-192.86-17.18,26-33.68,52.11-48.16,77.31C1291.61,489.18,1221.22,567,1220.14,568.25c80.1-64.49,140.75-97.14,184.68-113.14-12.25,25.74-21,49.49-24.55,69.82-20.9,120.66-280.14,199.81-383,338.65a380.91,380.91,0,0,1-10.06,68.89c-13.8,37.34-15.29,35.8-28.38,57.12a106,106,0,0,1,25.21-23.92,101,101,0,0,1,12.84-6,107.19,107.19,0,0,1,38.35-7,56.82,56.82,0,0,1,19.15,3.41c8.8,3,17.56,7.19,31.92,9.51,154.68,19,163.44-131.39,162.32-141.42,0-.11,0-.22,0-.33a6.05,6.05,0,0,1-.53-2.5,5.41,5.41,0,0,1,5.14-5.65,4.87,4.87,0,0,1,3.6,1.62s.08.1.12.15c.5,1.29,1,2.58,1.41,3.87h0c37.69,107-27.46,198.95-134.8,266.05a201.82,201.82,0,0,1-43.56,20.85c-37.91,12.54-69,7.85-91.49-1-20-9.83-35.49-25.76-43.12-44.88q0,1.21,0,2.46a98.92,98.92,0,0,1-113.36,97.73q-2.61-.39-5.18-.91c-1-.2-1.94-.41-2.9-.64h0a260.62,260.62,0,0,1-332.35-30.47c-1.43-1.42-2.82-2.85-4.2-4.3a259.76,259.76,0,0,1-51.7-78.6c-.56-1.35-1.12-2.71-1.67-4.06q-22.67,5-48.5,9.25c-25.63,4.21-53.7,7.82-84.47,10.74-42.7,4-90.59,6.7-144.28,7.64,0,0-6.58-2,.38-5.25,20.18-9.46,66.85-23,116.71-47.07a443.86,443.86,0,0,0,62.82-36.52c34.81-24.57,66.2-56,85.56-96.86a205,205,0,0,0,11.5-30.15v0s0,0,0,0A109.73,109.73,0,0,1,439,837.2s0,0,0-.05q5.19-11.32,11.44-22l0-.05a111.73,111.73,0,0,1,142.36-37.91q4.26,2.11,8.31,4.58a115.78,115.78,0,0,1,10.74,7.43,111.52,111.52,0,0,1,42.85,83.24,113.13,113.13,0,0,1-.18,12.74,111.42,111.42,0,0,1-40,77.86h0l0,0a111.69,111.69,0,0,1-95.59,23.05l-.37-.08c-22.3-31-7.4-68.31-6.18-71.23-13.69,27-14.84,48.91-10.51,66.05a77.77,77.77,0,0,0,21.46,36.55,1.79,1.79,0,0,1-.32.13l.34.12c78.16,116.13,170.93,107,231,82.64a99,99,0,0,1-5.31-19.84c-.06-.44-.13-.9-.2-1.35A98.87,98.87,0,0,1,863.18,967.49c.63.11,1.26.21,1.89.34s1.37.26,2.07.41c1.17.25,2.36.52,3.53.81.48.11,1,.25,1.46.37l2.5.7.9.28,1.56.48.44.16c.72.23,1.44.47,2.15.72l.05,0c.72.26,1.43.52,2.14.8l.07,0c61.86-121,33.12-221.73,8.38-273.72h0a243.67,243.67,0,0,0-19.21-33.68c-1-1.47-7.59-9.42-11.44-14.09,0,0,0,0,0,0,.6-1.14,1.17-2.3,1.72-3.49,5.31-11.49,8.45-26,5.86-43.5-1.57-10.66-5.23-22.46-11.83-35.41,1.22,2.9,15.91,39.65-5.68,70.53q-1.32,1.88-2.82,3.73A74.27,74.27,0,0,1,794,665a75.46,75.46,0,0,1-11-.81,73.32,73.32,0,0,1-20-6,74.52,74.52,0,0,1-42.53-56c-.06-.33-.11-.67-.15-1a75.12,75.12,0,0,1,2.47-32.45,73.2,73.2,0,0,1,5.93-14c.22-.43.46-.84.71-1.27a74.52,74.52,0,0,1,98.6-29.2c1,.5,1.92,1,2.86,1.57q6.25,4.28,12.35,8.82A386,386,0,0,1,954.75,665.53c1,2,2,4,3,6C1012.44,463.5,1216.14,235,1619,86.68,1665.78,68.93,1594.68,161,1517.91,271.45Z"></path></g><g id="Layer_3" data-name="Layer 3"><path class="cls-1" d="M1695.37,680.33l-53.9,131.35h-2.71l-53.9-131.35H1506.5v231.9h61.6v-135h1.81l51.64,133.16h37.14l51.63-132.26h1.81V912.23h61.6V680.33Z"></path><path class="cls-1" d="M2148,824q-13.07-11.49-39.8-16.36l-35.33-6.34q-10-1.82-13.41-5.1t-3.34-7.13q-.12-5.43,5.66-8.38a33,33,0,0,1,25.19-.85,21.5,21.5,0,0,1,8.44,6,15.85,15.85,0,0,1,3.74,9.17h57.52q-1.14-27.63-22.93-43.26T2074.24,736q-24.79,0-42.85,6.62t-27.75,19.25q-9.67,12.63-9.56,30.74-.12,20.51,13.13,33.52t39.86,17.67l30.8,5.43q10.18,1.82,15,4.76t4.93,7.92q-.12,5.44-5.72,8.38t-14.21,2.95q-10.65,0-17.61-4.48a17.55,17.55,0,0,1-8.21-12.74H1990q2.6,26.73,25.08,43t62.33,16.31q24.12,0,43-7.42t29.78-21.06q10.92-13.63,11-32.21Q2161.09,835.46,2148,824Z"></path><path class="cls-1" d="M2169.62,738.3v45.29h114.59V738.3Zm108.71,127.05q-1.82.45-5.61,1.13a37.59,37.59,0,0,1-6.63.68,16.25,16.25,0,0,1-6.68-1.18,7.91,7.91,0,0,1-3.85-3.63,13.21,13.21,0,0,1-1.24-6.06V696.63h-62.51V862.18q-.22,18.23,7.14,30.35t22,17.72q14.61,5.6,36.12,4.47a107.05,107.05,0,0,0,18.41-2.38c5.16-1.2,9.15-2.22,11.94-3.05Z"></path><path class="cls-1" d="M2414.2,680.33v231.9h21.17V680.33Z"></path><path class="cls-1" d="M2609.7,764.8A50.54,50.54,0,0,0,2589,743.34q-13.3-7.3-30.85-7.3-19.14,0-32.11,8.09A48.87,48.87,0,0,0,2507,765.59h-1.82V738.3h-19.58V912.23h20.15V803.52q0-15.16,6.17-26.21a42.68,42.68,0,0,1,16.82-16.93,49.49,49.49,0,0,1,24.34-5.89q20,0,32,12.46T2597,800.81V912.23h20.15V799.56Q2617.12,779,2609.7,764.8Z"></path><path class="cls-1" d="M2766.41,738.3l-51.63,147.32h-1.59L2661.56,738.3H2639.7l63.53,173.93h21.51l63.53-173.93Z"></path><path class="cls-1" d="M2839.63,683.67a15.44,15.44,0,0,0-21.28,0,14,14,0,0,0,0,20.49,15.44,15.44,0,0,0,21.28,0,14,14,0,0,0,0-20.49Zm-21,54.63V912.23h20.27V738.3Z"></path><path class="cls-1" d="M2991.55,836.25q-10.92-11.55-32.78-16.87l-26.27-6.46q-16.2-4.06-23.95-11t-7.75-18.17q0-13.25,11.32-21.63t29-8.38q11.78,0,19.76,3.74a35,35,0,0,1,13,10.08,48.41,48.41,0,0,1,7.7,14.15l18.46-5.21q-6.34-18.9-20.67-29.72t-38.22-10.82q-17.55,0-31.25,6.23t-21.51,17.16a42.37,42.37,0,0,0-7.82,25.3q0,17.45,10.88,29.22T2924.91,831l28.43,6.8q14.26,3.39,21.28,10.58a24.39,24.39,0,0,1,7,17.72q0,13.59-12,22.59t-32,9q-17.88,0-28.81-7.93t-14.67-23.44l-19.36,4.75q4.64,21.75,21.18,33.24t42,11.49q19.13,0,33.68-6.51t22.71-18a43.94,43.94,0,0,0,8.15-26.15Q3002.48,847.8,2991.55,836.25Z"></path><path class="cls-1" d="M3059.45,683.67a15.46,15.46,0,0,0-21.29,0,14,14,0,0,0,0,20.49,15.46,15.46,0,0,0,21.29,0,14,14,0,0,0,0-20.49Zm-21,54.63V912.23h20.26V738.3Z"></path><path class="cls-1" d="M3244.62,778.67q-9.06-20.2-25.25-31.48t-37.59-11.27q-16,0-26.44,5.61a51.67,51.67,0,0,0-16.87,13.87,75.85,75.85,0,0,0-9.8,16.08h-1.81V680.33h-20.27v231.9h19.59V880h2.49a78.87,78.87,0,0,0,10,16.25,52.44,52.44,0,0,0,17,14q10.59,5.65,26.44,5.66,21.28,0,37.42-11.32t25.14-31.59q9-20.27,9-47.22T3244.62,778.67ZM3227.19,862Q3221,878.27,3209,887.83t-29.32,9.57q-16.87,0-28.71-9.23t-18.11-25.48q-6.3-16.25-6.29-37.31,0-20.83,6.23-36.86t18.06-25.14q11.83-9.11,28.82-9.11,17.43,0,29.44,9.45t18.17,25.54q6.16,16.08,6.17,36.12Q3233.41,845.65,3227.19,862Z"></path><path class="cls-1" d="M3291.86,680.33v231.9H3312V680.33Z"></path><path class="cls-1" d="M3476.06,868.86a45.77,45.77,0,0,1-9.68,14.33,46.58,46.58,0,0,1-15.74,10.35A56.56,56.56,0,0,1,3429,897.4q-18.1,0-31.36-8.5A55.37,55.37,0,0,1,3377.15,865a73.72,73.72,0,0,1-5.5-17.3h-20.2a96.34,96.34,0,0,0,7.92,25.23q9.69,20.21,27.46,31.59T3429,915.85q17.45,0,30.86-5.6a66.37,66.37,0,0,0,22.42-14.89,56.87,56.87,0,0,0,13-20.27Zm17.32-85.43a75.6,75.6,0,0,0-16.58-26.62,68,68,0,0,0-23.61-15.73,74,74,0,0,0-27.29-5.16q-22.55,0-39.69,11.61t-26.84,32.05q-9.67,20.43-9.68,46.71c0,1.68,0,3.35.09,5,1.93,0,7.83,0,13.84,0H3499.5v-10Q3499.5,799.45,3493.38,783.43Zm-123.26,30.06a71.28,71.28,0,0,1,7-27.06,60.22,60.22,0,0,1,19.65-23.33q12.57-8.83,29.1-8.83,15.61,0,27.57,7.81a53.53,53.53,0,0,1,18.68,21.23,66.24,66.24,0,0,1,6.74,30.18Z"></path><circle class="cls-1" cx="1887.73" cy="822.21" r="93.2"></circle></g></svg>