<svg xmlns="http://www.w3.org/2000/svg" viewBox="0 0 1748 1325"><defs></defs><g id="Layer_2" data-name="Layer 2"><path class="cls-1" d="M1610.52,220.63l-1.11.53-10.42,5c-3.84,1.8-7.66,3.66-11.45,5.54l0,0C1301,355.55,1157,516,1157,516c179.69-144.67,340.83-206.43,407.49-227.67-20.29,30.67-39.76,61.52-56.85,91.27C1343.39,477.64,1260.3,569.55,1259,571c94.55-76.12,166.15-114.67,218-133.55-14.47,30.38-24.82,58.42-29,82.42C1423.38,662.28,1117.35,755.71,996,919.6a450,450,0,0,1-11.87,81.33c-16.29,44.07-18.05,42.26-33.51,67.42a125.14,125.14,0,0,1,29.77-28.23,116.36,116.36,0,0,1,15.15-7.07,126.35,126.35,0,0,1,45.27-8.26,67,67,0,0,1,22.61,4c10.38,3.52,20.72,8.49,37.68,11.23C1283.67,1062.53,1294,885,1292.69,873.11c0-.13,0-.26,0-.39a7.18,7.18,0,0,1-.62-3c0-3.69,2.71-6.68,6.06-6.68a5.76,5.76,0,0,1,4.25,1.92l.15.17c.58,1.53,1.12,3.05,1.66,4.57v0c44.49,126.27-32.42,234.85-159.13,314a238.5,238.5,0,0,1-51.42,24.62c-44.75,14.8-81.4,9.26-108-1.13-23.6-11.6-41.89-30.41-50.9-53,0,1,0,1.93,0,2.91A116.72,116.72,0,0,1,800.92,1272.6q-3.07-.45-6.11-1.07-1.72-.35-3.42-.75h0a307.69,307.69,0,0,1-392.33-36q-2.52-2.52-5-5.08a306.6,306.6,0,0,1-61-92.78q-1-2.4-2-4.8-26.74,5.88-57.25,10.92c-30.25,5-63.39,9.24-99.71,12.68-50.41,4.77-106.94,7.91-170.31,9,0,0-7.77-2.36.44-6.2C28.09,1147.41,83.18,1131.48,142,1103c24.74-12,50.13-26.14,74.16-43.11,41.09-29,78.15-66.16,101-114.34A241.45,241.45,0,0,0,330.76,910s0,0,0,0,0,0,0,0a129.66,129.66,0,0,1,6.16-21.43s0,0,0-.05q6.14-13.38,13.51-26l0,0a131.9,131.9,0,0,1,168-44.75c3.35,1.66,6.62,3.47,9.81,5.4A135.84,135.84,0,0,1,541,831.74,131.7,131.7,0,0,1,544.17,1037h0l0,0a131.87,131.87,0,0,1-112.84,27.21l-.44-.1c-26.32-36.62-8.74-80.63-7.29-84.08-16.17,31.84-17.52,57.74-12.41,78,4.94,19.73,16,34,25.33,43.15-.12,0-.25.11-.38.15l.4.14c92.27,137.08,201.78,126.35,272.72,97.55a116.77,116.77,0,0,1-6.26-23.42c-.08-.52-.16-1.06-.24-1.59a116.71,116.71,0,0,1,134.95-131.72c.74.13,1.49.25,2.23.4s1.62.31,2.44.49c1.39.29,2.79.61,4.17,1,.57.13,1.15.29,1.72.43,1,.27,2,.54,2.95.83.36.11.72.21,1.07.33l1.84.57.52.18c.85.27,1.7.56,2.53.86l.06,0c.86.3,1.69.61,2.53.94l.08,0c73-142.81,39.1-261.74,9.89-323.12h0A287.32,287.32,0,0,0,847,685.41c-1.19-1.73-9-11.12-13.51-16.63,0,0,0,0,0,0q1.05-2,2-4.11c6.27-13.57,10-30.64,6.92-51.35-1.86-12.59-6.18-26.52-14-41.81,1.44,3.43,18.78,46.81-6.7,83.26-1,1.48-2.15,2.94-3.33,4.4A87.93,87.93,0,0,1,743,684.21a86.72,86.72,0,0,1-23.65-7,88,88,0,0,1-50.2-66.12c-.07-.39-.13-.79-.18-1.19a87.76,87.76,0,0,1,9.91-54.9c.27-.5.55-1,.84-1.49A88,88,0,0,1,796.15,519c1.14.59,2.27,1.2,3.38,1.85q7.4,5,14.58,10.41A455.64,455.64,0,0,1,945.74,685.81c1.21,2.34,2.41,4.68,3.58,7,64.52-245.52,305-515.21,780.53-690.34C1785.07-18.44,1701.14,90.24,1610.52,220.63Z"></path></g></svg>