<?xml version="1.0"?>
<svg fill="#101010" id="Layer_2" data-name="Layer 2" xmlns="http://www.w3.org/2000/svg" viewBox="0 0 341.02 260.44">
  <g id="Layer_1-2" data-name="Layer 1">
    <g id="mF4AkA.tif">
      <g>
        <path d="M306.2,32.6c-17.09,15.06-33.33,31.2-50.2,46.55-35.77,32.55-72.32,64.38-107.51,97.49-8.32,7.82-26.25,23.47-31.4,32.6-1.38,2.44-1.58,4.48,2.02,4.07,4.96-.56,19.62-10.36,24.54-13.5,21.59-13.77,42.35-28.88,64.18-42.32,8.5-5.24,22.33-14.51,31.32-17.68,2.45-.86,6.03-1.83,4.62,2.12-.65,1.82-13.08,13.12-15.46,15.28-17.87,16.22-41.66,34.07-56.8,52.45-.74.9-4.13,5.43-3.51,6.24,14.02-5.78,26.22-15.64,39.04-23.71,16.65-10.47,34.11-21.22,51.95-29.55,5.56-2.6,19.96-9.21,25.5-9.51,1.1-.06,2.32.09,3,1.07l-1.74,3.2c-16.19,10.87-33.68,19.94-49.2,31.8-3.78,2.89-12.91,10.24-14.65,14.35-.26.62-.53,1.15-.39,1.86,1.64.23,2.96-.72,4.33-1.41,11.67-5.91,26.25-15.73,37.62-22.88s22.14-14.87,33.3-22.21c3.34.84.6,4.99-.55,6.96-7.9,13.62-22.13,26.59-30.92,40.08-.4.61-.93,1.13-.79,1.95l3.16-1.08c12-8.09,38.77-34.84,52.58-35.64,8.12-.47,9.06,2.89,6,9.72-6.09,13.6-34.84,27.09-49.06,28.94-2.41.31-7.13-.04-8.7.28-2.22.46-9.83,8.57-11.45,6.24-.48-2.47,1.07-4.13,2.08-6.11,1.6-3.12,1.37-2.09,3.37-4.62,3.23-4.09,6.1-8.58,9.29-12.7,6.5-8.41,15.2-17.39,20.93-26.07.31-.46,2.26-3.49.54-2.96-7.67,5.33-15.23,10.86-23.09,15.91-13,8.34-27.9,17.68-41.33,25.17-2.64,1.47-5.44,3.51-8.58,2.9-4.41-.85-.64-5.67.82-7.65,3.76-5.07,10.65-10.4,15.76-14.24,14.22-10.7,29.98-19.37,45.15-28.6.1-.89-1.71-.53-2.2-.45-7.33,1.25-21.78,8.59-28.81,12.19-25.48,13.02-47.49,30.15-71.83,44.17-2.68,1.54-11.97,7.67-13.79,3.46-1.45-3.36,9.74-14.57,12.31-17.19,18.97-19.31,40.63-35.93,60.27-54.48.41-.39,2.5-2.03,1.8-2.7-19.53,9.28-37.86,21.25-56,33-12.39,8.03-24.38,16.72-36.78,24.72-5.13,3.31-23.19,15.29-28.21,15.3-4.56.01-5.74-2.88-3.66-6.67,3.68-6.75,14.81-17,20.6-22.64,37.42-36.44,78.14-71.16,116.82-106.44,17.14-15.64,33.63-32.12,50.99-47.51,8.87-7.87,20.44-15.85,28.51-23.99.74-.74,1.41-.92.24-1.75-25.77,15.61-49.25,34.8-71.76,54.73-49.11,43.5-91.19,94.26-141.99,136.01-23.25,19.11-74.13,60.09-103.31,63.19-3.66.39-14.82-.16-15.18-5.22-.25-3.47,6.47-13.12,8.76-16.2,13.41-18.02,33.39-35.06,50.98-49.02,24.31-19.28,50.42-36.3,73.98-56.52v-1.49c-16.48,7.39-32.77,15.3-48.75,23.74-6.98,3.68-27.16,16.91-33.75,16.81-5.78-.09-.93-5.6.79-7.65,2.89-3.45,7.78-7.77,11.21-10.88,18.57-16.85,39.17-33.94,58.52-50,40.15-33.35,89.69-68.89,137.13-90.87,5.57-2.58,14.34-5.5,7.32,3.82-8.22,10.91-24.34,22.63-34.72,32.28-13.95,12.98-28.49,26.87-40.8,41.18-1.39,1.61-3.8,3.46-4.2,5.57-1.34-.28,0-2.31.35-2.88,2.25-3.74,9.38-10.93,12.65-14.38,17.4-18.41,36.61-34.68,54.77-52.21,1.93-1.86,11.01-10.52,11.18-12.35l-.7-1.18c-50.16,24.5-96.38,55.18-139.48,90.51-21.42,17.56-46.23,37.44-66.03,56.47-1.84,1.76-7.97,7.5-8.53,9.48-.64,2.26,2.49,1.16,3.78.77,9.91-3.01,24.3-13.22,34.07-18.43,12.36-6.58,25.98-13.58,38.75-19.25,1.68-.74,8.67-4.38,9.98-2.59.36.54.22,1.08.12,1.66-.54,3.18-10.74,11.02-13.67,13.36-36.94,29.4-88.34,59.32-115.45,98.05-1.56,2.23-6.87,10.31-6.32,12.64.17.71,6.11,2.74,7.26,2.86,19.81,2.03,52.16-20.71,67.93-32.12,36.85-26.64,70.06-56.03,102.17-88.08C226.59,91.01,274.73,37.66,332.83,3.49c1.3-.76,6.61-4.14,7.67-3.37,2.07,1.5-2.64,5.71-3.76,6.79-9.21,8.89-20.78,17.08-30.55,25.7ZM324.99,173.89c-6.55-.9-11.63,2.05-16.96,5.29-4.53,2.76-9.21,6.33-13.49,9.51-8.1,6.02-16.02,12.52-23.55,19.19,13.75-.33,27.89-7.04,39.16-14.59,7.02-4.71,14.49-10.21,14.84-19.41Z"></path>
        <path d="M254.98,108.4l-10.49,5.74,1.99,1.75c-.99-.07-3.61.45-3.97-.8-1-3.4,9.82-7.21,12.47-6.69Z"></path>
      </g>
    </g>
  </g>
</svg>