<svg id="Layer_1" data-name="Layer 1" xmlns="http://www.w3.org/2000/svg" viewBox="0 0 1249 798"><defs></defs><path class="cls-1" d="M270.41,694.81q-9.09,0-17.35-8.27-13.63-14.87-19.62-37.78a378.5,378.5,0,0,1-8.88-44,237.53,237.53,0,0,0-5.16-25.4q-2.68-9.69-7.23-9.7-19.41,0-31.8,4.13t-16.52,21.89A128.46,128.46,0,0,0,161.79,611q-4.56,33.85-9.5,37.17a12.12,12.12,0,0,1-7.44,2.47q-6.19,0-13.63-5.36-14-9.51-14-23.55a42.78,42.78,0,0,1,3.1-14.86q3.09-8.26,3.1-12.39c0-3-1.51-4.55-4.55-4.55q-3.7,0-15.69,5.17t-15.28,5.16q-6.19,0-12.18-7.23a24.88,24.88,0,0,1-6-16.31q0-9.5,10.53-14.66t27.46-8.47q28.92-6.19,38.83-15.28L233.24,357q11.14-21.89,33-21.89a60.34,60.34,0,0,1,16.52,2.48q14.44,4.95,14.45,14.87,0,8.67-4.13,21.47-32.22,119-32.21,192.46,0,76.41,19.41,109,4.13,6.6,4.13,9.5,0,3.3-4.55,6.61A15.93,15.93,0,0,1,270.41,694.81ZM197.3,537.87a49,49,0,0,0,9.92-1.24q14.86-3.3,16.52-14.46L225.8,509q7.44-38.41,7.44-54.52c0-4.68-.56-7-1.66-7q-3.71,0-27.67,48.32Q189,526.71,189,534.56,189,537.88,197.3,537.87Z"></path><path class="cls-1" d="M351.77,632Q289,632,289,573.8q0-5.37,2.27-24.37t17.55-49.56q27.68-54.51,59.06-54.52,25.61,0,38.83,25.61a35.15,35.15,0,0,1,4.13,16.52q0,10.74-6.2,22.3-35.52,52.46-66.91,67.32-11.14,5.37-11.15,11.15a15.36,15.36,0,0,0,.83,5q3.72,13.21,14.87,13.21,16.51,0,44.19-20.23,18.17-13.22,26-20.24Q422.4,556,428.17,556A10,10,0,0,1,434,558.1a13.4,13.4,0,0,1,4.55,10.33q0,6.6-8.47,19.41T402.36,615.1q-19.2,14.45-34.49,16.1Q359.2,632,351.77,632Zm-15.7-86.73q10.74-7.44,20.65-26,14.86-27.25,14.87-33.87,0-3.3-4.13-3.3a5.47,5.47,0,0,0-4.54,2.07q-31,52.86-31,57C331.94,543.38,333.32,544.75,336.07,545.3Z"></path><path class="cls-1" d="M461.21,628.73q-15.7,0-15.69-10.33,0-5.35,15.28-20.24,20.64-19.81,20.65-30.56,0-2.05-2.07-6.61t-21.89-7.84q-33-5-33-37.17,0-15.69,9.91-47.09Q451.29,414,476.49,414a23.47,23.47,0,0,1,7.43,1.23q16.93,5.39,16.94,12.39,0,6.2-6.2,14.05-31,38.4-31,78.47.4,14,21.06,16.52,38.82,4.13,39.65,23.54v11.56q0,10.74-19.83,31Q481.86,625.42,461.21,628.73Z"></path><path class="cls-1" d="M634.66,637q-26.85,0-27.25-22.31,0-7,24.78-194.11c0-3-.83-4.54-2.48-4.54q-1.25,0-28.09,5c-2.47.55-4.27,2.34-5.36,5.37L588,459q-14.06,58.23-14,98.71a214.43,214.43,0,0,0,9.5,63.19,16.88,16.88,0,0,1,.83,5.37q0,10.32-14,10.32A17.59,17.59,0,0,1,558.67,632q-17.76-14-21.06-33Q536,588.67,536,571.32q0-69.39,15.28-128a28.55,28.55,0,0,0,.82-5.78q0-3.72-2.47-3.72a28.08,28.08,0,0,0-8.68,1.65Q500,446.6,489.29,446.59q-19.83,0-22.3-23.54,0-8.25,8.67-12.18t25.19-6.2a192.11,192.11,0,0,0,34.08-8.05q17.54-5.78,26.84-10.74t14.66-56.17q1.65-18.16,16.93-19.41a26.47,26.47,0,0,1,7.44,1.24q14.87,3.72,14.87,18.17a119.89,119.89,0,0,1-2.07,22.72q-3.72,18.58-3.72,20.24,0,4.95,5.37,4.95,22.31-3.3,24.16-5.16t25.4-125.35q2.49-14,15.28-14l3.72.41q14.46.84,14.46,15.7,0,16.51-16.52,105.31l-2.07,9.92c0,1.92.83,2.89,2.48,2.89l1.24-.42q87.55-13.2,107.38-13.21,9.08,0,18.58.82,24.38,2.89,25.2,27.26,0,10.33-8.68,10.74a23.68,23.68,0,0,1-6.6-.83,99.34,99.34,0,0,0-28.91-4.13q-11.58,0-115.64,19.41a8,8,0,0,0-3.52,2.28c-1.23,1.24-2.27,5.85-3.09,13.83Q657,494.51,657,501.52c0,2.76.55,4.13,1.65,4.13q2.05,0,6.61-8.67a299.34,299.34,0,0,1,40.88-56.58q9.09-9.91,20.24-10.33A25.74,25.74,0,0,1,737.91,433q12.81,6.62,13.63,20.24l-.41,9.09q-9.92,83.43-9.91,112.75,0,17.76,12.8,31.38,6.6,6.62,7,11.57,0,3.72-4.13,8.67-7.42,8.67-17.76,9.09a26.16,26.16,0,0,1-12.39-3.31Q706.95,622.12,705.49,600t-1.44-48.53q0-14.44.82-28.91,1.25-17.75,1.24-21.47c-.27-4.4-1-6.61-2.06-6.61q-7.44,0-29.32,59.89-17.36,47.91-18.59,59.88Q653.67,636.58,634.66,637Z"></path><path class="cls-1" d="M833.31,632q-62.77,0-62.77-58.23,0-5.37,2.27-24.37t17.55-49.56q27.66-54.51,59.06-54.52,25.61,0,38.82,25.61a35,35,0,0,1,4.13,16.52q0,10.74-6.19,22.3-35.53,52.46-66.91,67.32-11.14,5.37-11.15,11.15a15.36,15.36,0,0,0,.83,5q3.7,13.21,14.86,13.21,16.52,0,44.19-20.23Q886.18,573,894,566q9.91-9.91,15.7-9.91a10,10,0,0,1,5.78,2.06A13.39,13.39,0,0,1,920,568.43q0,6.6-8.46,19.41T883.9,615.1q-19.2,14.45-34.48,16.1Q840.75,632,833.31,632ZM817.62,545.3q10.74-7.44,20.65-26,14.87-27.25,14.87-33.87,0-3.3-4.13-3.3a5.5,5.5,0,0,0-4.55,2.07q-31,52.86-31,57C813.49,543.38,814.86,544.75,817.62,545.3Z"></path><path class="cls-1" d="M962.58,682.83a14.78,14.78,0,0,1-6.61-1.65q-17.76-7.86-23.54-23.13-9.91-26.43-9.91-83,0-64.85,17.34-158.6a67.46,67.46,0,0,0,.83-8.67q0-3.72-3.3-3.72-6.61,0-15.28,3.72Q911,412.32,892,412.31q-7.85,0-16.94-14.86-3.72-6.19-3.71-11.57,0-10.32,16.52-12.39l53.27-7q9.49-1.25,12.81-12.8L982,255.37q4.54-16.1,16.11-16.1a28,28,0,0,1,8.67,1.65q16.11,6.2,16.11,18.17a30.2,30.2,0,0,1-2.07,9.91q-7.84,21.06-20.23,59.89-7.44,22.71-7.44,26,.4,7,11.57,7l22.71-.42a156,156,0,0,1,18.17,1.24q10.32,1.25,24,9.92t14,18.58a20.85,20.85,0,0,1-2.07,8.67q-3.3,6.19-8.26,6.2t-11.15-3.31q-10.74-5.35-35.1-5.36-41.73,0-44.61,6.6a41.37,41.37,0,0,0-2.89,8.26,804.6,804.6,0,0,0-19,175.12q0,32.21,3.72,52.86,2.47,13.63,11.56,26.84a9.09,9.09,0,0,1,2.07,5,9.44,9.44,0,0,1-2.07,5.37Q971.67,682.41,962.58,682.83Z"></path><path class="cls-1" d="M1012.55,640.7h-1.24q-21.06,0-22.71-28.49-.84-14-.83-27.26,0-50,9.91-92.51,2.9-12,15.7-12,22.3,0,22.3,17.76a46.39,46.39,0,0,1-.83,9.08,722.2,722.2,0,0,0-12.8,106.56,30.77,30.77,0,0,0,1,8.26,29.1,29.1,0,0,1,1,7.84,36,36,0,0,1-.62,6.61Q1022.87,639.87,1012.55,640.7Zm13.22-166.44-5.78-.41q-11.58-2.48-12.39-15.28v-8.26q0-14.87,13.21-47.91l2.07-5.78q3.3-7.85,12.39-8.26a22.16,22.16,0,0,1,8.26,1.65q14,6.19,14.45,14.87,0,9.09-21.06,61.12Q1033.2,474.27,1025.77,474.26Z"></path><path class="cls-1" d="M1091.43,632.86q-26.85,0-44.19-25.61-7.42-10.74-7.43-27.67,0-32.22,21.89-81.36,13.21-30.15,25.6-45.43,9.09-11.57,24.78-11.57,29.75,0,29.74,18.59,0,3.72-2.27,5.37t-12.6,4.95q-13.62,4.14-23.13,23.13a213.05,213.05,0,0,0-22.3,95q0,13.23,9.09,18.59a10.94,10.94,0,0,0,5.37,1.65q9.07,0,38.41-32.22a12.23,12.23,0,0,1,9.49-4.13h5.37c3,0,4.55,1.66,4.55,5a71.15,71.15,0,0,1-13.63,34.28Q1123.64,632.85,1091.43,632.86Z"></path><path class="cls-1" d="M247,272.08q-9.36,0-10.29-8.16a122.19,122.19,0,0,1-.93-13.26q.17-16.49,5.61-42.67.84-8.51,7.14-28.39Q253,165,253,163.11q-.69,0-6,12.24-4.59,10.36-11,24.14-16,34-26.86,43.18-2.9,2.55-5.44,2.55-2.73,0-4.93-3.4a49.05,49.05,0,0,1-5.61-21.76q-.35-11.73-.34-22.27,0-13.42.85-26v-5.1q-2,0-11.73,44.71-7,32.13-7.31,41.14-.35,6.29-6,6.29a10.12,10.12,0,0,1-6.8-2.89c-2.15-1.93-3.23-4.7-3.23-8.33q0-2.55,3.4-22.1,6.79-40.29,17.34-72.42,5.77-17.69,13.77-17.68A18.17,18.17,0,0,1,203.69,139q5.1,3.57,5.1,19.21l-.85,53.21c0,2.27.39,3.4,1.19,3.4q3.06,0,19-31.11,8.16-15.81,17.17-31.79,19.38-34,29.24-34a6,6,0,0,1,2.38.51q4.92,2.55,4.93,7.31A13,13,0,0,1,281,130q-14.28,39.78-22.27,68.85-8,30.09-8,48.11,0,12.59,4.93,18a2.94,2.94,0,0,1,1,2c0,.79-.63,1.7-1.87,2.72Q252.48,272.09,247,272.08Z"></path><path class="cls-1" d="M318.78,292.14a9.8,9.8,0,0,1-4.08-.85q-7.32-3.06-10.2-9.1t-2.89-19.29q0-7,.85-19.21c0-5-.12-7.48-.34-7.48s-.85.74-1.87,2.21q-5.79,7.49-13.43,7.48a14.19,14.19,0,0,1-4.76-.85q-10.89-4.25-10.88-15.64,0-43.86,7.82-44.37l2,.17q8.67.34,8.67,9.52-.69,13.94-.68,21.42,0,9,1.36,9,2.21-.16,9.86-15.47,4.59-9,11.56-21.59,3.06-5.26,8.16-5.27a12.93,12.93,0,0,1,4.08.68q5.77,2.2,5.78,8a13,13,0,0,1-.34,3.06q-2.73,8.83-6.46,26.86-5.1,24.83-5.1,42,0,14.28,5.1,20.4a7.43,7.43,0,0,1,1.87,3.4,3.46,3.46,0,0,1-1.19,2.38A7.34,7.34,0,0,1,318.78,292.14Z"></path><path class="cls-1" d="M356.17,272.93H355q-7.82,0-9-6.29,0-3.57,8.16-7,15-6.29,15-20.57v-3.74c-.23-3.4-.39-6.86-.51-10.37q0-48.45,16.83-104,1.69-5.45,6.12-5.44a13.26,13.26,0,0,1,6.38,1.61q3,1.62,3,4.34a6.33,6.33,0,0,1-.34,2q-17.18,69.19-17.17,105.23l.17,6.46q1.69,12.92,11.9,12.92,9.85,0,24.14-3.57,7.49-1.69,13.6-2.72,6.46,0,9.52,3.48a11.45,11.45,0,0,1,3.23,6.89q0,4.59-3.74,4.59h-7.82q-16.49,0-48.45,9.69Q364.16,272.59,356.17,272.93Z"></path><path class="cls-1" d="M438.45,255.08h-.51q-8.67,0-9.35-11.73-.34-5.78-.34-11.22a167.68,167.68,0,0,1,4.08-38.08c.79-3.29,2.95-4.93,6.46-4.93q9.18,0,9.18,7.31a18.83,18.83,0,0,1-.34,3.74A297.5,297.5,0,0,0,442.36,244a12.4,12.4,0,0,0,.43,3.4,12.11,12.11,0,0,1,.42,3.23,14.8,14.8,0,0,1-.25,2.72C442.79,254.29,441.28,254.85,438.45,255.08Zm5.44-68.51-2.38-.17q-4.75-1-5.1-6.29v-3.4q0-6.12,5.44-19.72l.85-2.38a5.35,5.35,0,0,1,5.1-3.4,9.16,9.16,0,0,1,3.4.68q5.78,2.55,5.95,6.12,0,3.74-8.67,25.16Q446.95,186.58,443.89,186.57Z"></path><path class="cls-1" d="M474,317.3l-4.25-.17q-11.22-1.69-12.58-12.58a96.78,96.78,0,0,1-.85-11.9q0-17.17,5.27-44.88a21.21,21.21,0,0,0,.51-4.42,11.78,11.78,0,0,0-.08-1.45c-.06-.39-.2-1.07-.43-2s-1.76-2.06-4.59-3.31-4.36-2.78-4.59-4.59c0-.34.06-1.11.17-2.3s1.59-2.46,4.42-3.82q10.54-4.76,12.58-17.51,1.69-11.06,5.95-27.88,2.39-9.52,4.42-11.39a5.08,5.08,0,0,1,3.4-1q8.32,0,8.33,6.63,0,5.61-6,27.37a29.08,29.08,0,0,0-1,6.8q0,4.08,2.55,4.08a34.77,34.77,0,0,0,7.48-1.36,36.84,36.84,0,0,1,9-1.36c.79,0,1.9.06,3.31.17s3.38,1.36,5.87,3.74c2,1.81,3.06,3.63,3.06,5.44a5.76,5.76,0,0,1-1.53,3.57A5.37,5.37,0,0,1,510,225a7.8,7.8,0,0,1-3.91-1.19,11.53,11.53,0,0,0-6.12-2q-3.92,0-9.86,2.72-2.38,1.19-4.93,2.21a1.32,1.32,0,0,0-.85,1.36,5.25,5.25,0,0,0,.51,2.38Q492,244.71,492,270.21q0,7-.68,17.59a51.06,51.06,0,0,1-5.95,20.66Q481.29,316.46,474,317.3Zm-1.19-13.43q1.36-.18,5.27-22.44,3.06-17.85,3.06-27.71-.86-10-2.89-11.9a11.43,11.43,0,0,0-1,1.19q-.51.68-1.36,6.63-4.43,29.42-4.42,50C471.43,302.45,471.88,303.87,472.79,303.87Z"></path><path class="cls-1" d="M530.08,251.51q-25.85,0-25.84-24c0-1.47.31-4.82.93-10s3-12,7.23-20.4q11.39-22.44,24.31-22.44,10.53,0,16,10.54a14.43,14.43,0,0,1,1.7,6.8,19.41,19.41,0,0,1-2.55,9.18q-14.62,21.59-27.54,27.71-4.59,2.21-4.59,4.59a6.33,6.33,0,0,0,.34,2q1.53,5.44,6.12,5.44,6.8,0,18.19-8.33,7.47-5.44,10.71-8.33,4.08-4.08,6.46-4.08a4.08,4.08,0,0,1,2.38.85,5.52,5.52,0,0,1,1.87,4.25c0,1.81-1.17,4.48-3.49,8s-6.12,7.25-11.39,11.22-10,6.17-14.19,6.63Q533.14,251.52,530.08,251.51Zm-6.46-35.7q4.41-3.06,8.5-10.71,6.12-11.22,6.12-13.94c0-.91-.57-1.36-1.7-1.36a2.24,2.24,0,0,0-1.87.85q-12.75,21.76-12.75,23.46C521.92,215,522.48,215.58,523.62,215.81Z"></path></svg>