<svg id="Layer_1" data-name="Layer 1" xmlns="http://www.w3.org/2000/svg" viewBox="0 0 266.94 91.21"><defs></defs><g id="Layer_2" data-name="Layer 2"><g id="Layer_5" data-name="Layer 5"><path class="cls-1" d="M32.7,33.76c.3-1.2.6-2.3.9-3.5a3.29,3.29,0,0,1,.7,1.3,7.49,7.49,0,0,1,.5,1.6l.1.2c0,.1.1.1.1.2a5.64,5.64,0,0,0,.4,1.2,5.36,5.36,0,0,0,.5,1.1v.2a1.3,1.3,0,0,0,.5,1.3,3.08,3.08,0,0,0,1.3.3h2.7a14.17,14.17,0,0,0,.8-1.8c.2-.6.5-1.2.7-1.8a.52.52,0,0,1,.2-.4l.2-.4c.2-.5.4-1.1.6-1.6s.5-1.1.7-1.6a10.66,10.66,0,0,1,.7,1.9,6.45,6.45,0,0,1,.3,2v.2l.3,1.8a8.45,8.45,0,0,0,.5,1.7,10.87,10.87,0,0,0,1.8.1h4.9l.5-.2a41,41,0,0,0-1.4-5c-.5-1.6-1.1-3.2-1.7-4.8,0-.1-.1-.2-.1-.3l-.1-.3c-.6-1.6-1.2-3.3-1.7-5a49.13,49.13,0,0,1-1.5-5.1,1.21,1.21,0,0,0-.7-.7,3.55,3.55,0,0,0-1-.2H41.6a21.85,21.85,0,0,0-.9,2.3c-.2.8-.5,1.5-.7,2.3,0,.1,0,.2-.1.2s0,.2-.1.2c-.2.7-.5,1.4-.7,2.1s-.5,1.4-.7,2l-.5.2-.2-.6a1.45,1.45,0,0,1-.2-.7,3.18,3.18,0,0,0-.3-.9l-.3-.9c-.4-1-.7-2-1.1-3s-.7-2-1-3l-4.4-.2-.3.4a43.45,43.45,0,0,1-1,5.2c-.4,1.7-.9,3.4-1.3,5.2l-.1.4c0,.2-.1.3-.1.4-.4,1.6-.8,3.2-1.2,4.7s-.7,3.2-1,4.8c.5,0,1.1.1,1.7.1s1.1.1,1.7.1h1.7c.5,0,1.2-.1,1.7-.1C32.3,36.26,32.5,35,32.7,33.76Zm-2-4c0,.2-.1.3-.1.5s-.1.3-.1.5l-.6,2.1a14.19,14.19,0,0,0-.5,2.2h-.7c.3-1.3.7-2.6,1-3.9s.7-2.6,1.1-4,.7-2.6,1.1-3.9.7-2.6,1-4l1.1,2.5c.4.9.8,1.9,1.2,2.8.9,2,2,4.7,3.5,8.1l4.7-13.2,1,3c.4,1.1.7,2.2,1.2,3.3l.1.2v.2c.7,2.1,1.4,4,2.1,5.8.4,1.1.8,2.1,1.2,3.1.1.1.1.1.1.2h-.5l-.4-.2c-.1-.4-.4-1.2-.9-2.5s-1-2.7-1.5-4.3-1-2.9-1.5-4.2a20.21,20.21,0,0,1-.9-2.7L43,22c-.6,2.1-1.3,4.1-2,6.2s-1.4,4.1-2.2,6.1l-.4-.1a32,32,0,0,0-1.7-4.3l-1.8-4.2-1-2.2c-.3-.7-.7-1.5-1-2.2l-.5.9c-.2,1.3-.5,2.6-.8,3.9s-.5,2.5-.9,3.7Zm28.8.2a7.1,7.1,0,0,0,2.8,2.9,12.94,12.94,0,0,0,3.8,1.2h1.2l.3-.1.3-.1a8,8,0,0,0,3.6-1.7A6.18,6.18,0,0,0,73.8,29c0-.2.1-.3.1-.5A.9.9,0,0,1,74,28a.9.9,0,0,1,.1-.5V27a8.16,8.16,0,0,0-1.7-5l-.2.1L72,22a15.58,15.58,0,0,0-2-1.6,5,5,0,0,0-2.3-.9l-.5-.1h-1a6.29,6.29,0,0,0-3.3.9,15.46,15.46,0,0,0-2.7,2.4,7.57,7.57,0,0,0-.9,1.8,7.79,7.79,0,0,0-.4,2.1v.5a7.72,7.72,0,0,0,.2,1.5,3.26,3.26,0,0,0,.4,1.4Zm2.4-5.2a4.81,4.81,0,0,1,1.2-1.6,3.77,3.77,0,0,1,1.5-.9,5.08,5.08,0,0,1,1.7-.3h.3a6.07,6.07,0,0,1,2.6.8,4.94,4.94,0,0,1,1.8,2,3.81,3.81,0,0,1,.3,1,4.1,4.1,0,0,1,.1,1.1,7.72,7.72,0,0,1-.2,1.5,3.53,3.53,0,0,1-.8,1.3A10.15,10.15,0,0,1,68.6,31a4.28,4.28,0,0,1-2.2.6,4.47,4.47,0,0,1-2.7-1.2,8.18,8.18,0,0,1-2-2.5,1.27,1.27,0,0,1-.1-.6v-.6a3,3,0,0,1,.3-1.9Zm-4,9A8,8,0,0,0,62.7,37a30.53,30.53,0,0,0,6,.6,9.13,9.13,0,0,0,4.4-1.9A18.93,18.93,0,0,0,76.3,32v-.3c.2-.7.4-1.4.6-2.2a18.92,18.92,0,0,0,.5-2.3c0-.2.1-.5.1-.7v-.8a8.42,8.42,0,0,0-.4-2.7,4.78,4.78,0,0,0-1.3-2.3A7.41,7.41,0,0,0,71.9,17a13,13,0,0,0-5.2-1H66a19.42,19.42,0,0,0-2.4.2,15.72,15.72,0,0,0-2.3.4,10.72,10.72,0,0,0-3.8,2.9,10.58,10.58,0,0,0-2.2,4.2,7.08,7.08,0,0,0-.1,1.4,7.57,7.57,0,0,0-.1,1.5v.3a11.56,11.56,0,0,0,.7,3.7A9.88,9.88,0,0,0,57.9,33.76Zm1-10.5a8.86,8.86,0,0,1,2.4-3A6.11,6.11,0,0,1,63.5,19a7.27,7.27,0,0,1,2.5-.4h.9c.3,0,.6.1.9.1a9.61,9.61,0,0,1,2.8,1.1,11.56,11.56,0,0,1,2.5,2,7,7,0,0,1,1.3,2.4,8.42,8.42,0,0,1,.4,2.7,7.57,7.57,0,0,1-.1,1.5l-.3,1.5a8.84,8.84,0,0,1-8,5h-.9A8.28,8.28,0,0,1,61.1,33a7.38,7.38,0,0,1-2.7-4c0-.2-.1-.3-.1-.5v-1.4a8.22,8.22,0,0,1,.6-3.8Zm21.3,2.5v1.1c0,1.7,0,3.4-.1,5.1s-.2,3.5-.3,5.3l1.2.3a4.87,4.87,0,0,0,1.2.1H83l.8-.1.7-.1a1.7,1.7,0,0,0,.7-.1h.1l1-.1c.4,0,.7-.1,1-.1-.1-.6-.1-1.2-.2-1.8a9.63,9.63,0,0,1,0-1.7c-.1-1.2-.1-2.4-.1-3.6v-7.4c0-1.1,0-2.2.1-3.3s.1-2.2.1-3.2c-.4,0-.8-.1-1.2-.1H85a10.87,10.87,0,0,0-1.8.1H81.4l-.2.1H79.6c.2,1.7.3,3.3.4,4.9S80.2,24.26,80.2,25.76ZM83.3,19l.2-.1h.1a.52.52,0,0,1,.4.2c.1.2.1.3.2.5v.5L84,34.46h-.6ZM24.8,45.56a4.1,4.1,0,0,1-.1,1.1l.1.1h3.6c0-.1.1-.3.1-.4a.76.76,0,0,1,.2-.4c0-.1,0-.2.1-.2l.1-.2c0-.1.1-.2.1-.3l.1-.3h-.4l-.5.1-.4.1h-.6a.37.37,0,0,1-.3-.1v-4.4l-2.1-.1-.1.1c0,.5.1,1.1.1,1.7v3.2Zm4.4,10.3a2.85,2.85,0,0,0-1.4-.8,9.85,9.85,0,0,0-1.7-.2H24.6v6.2h2.8A1.27,1.27,0,0,0,28,61a4.51,4.51,0,0,0,1.4-1,2.75,2.75,0,0,0,.8-1.5c0-.1.1-.2.1-.3v-.3a2.66,2.66,0,0,0-.3-1.2,3,3,0,0,0-.8-.8Zm-1,2.2v.1a1.79,1.79,0,0,1-.5.7,1.4,1.4,0,0,1-.9.3h-.1v-2.6h.5l.5.4a.52.52,0,0,1,.2.4.6.6,0,0,1,.1.4V58Zm4.4-1.5H33a4.87,4.87,0,0,1,1.2.1l1.2.1a3.55,3.55,0,0,0-.2-1l-.3-.9a2,2,0,0,0-.8.1H31.8a3.4,3.4,0,0,0-1,.1v6.1H35l.1-.4c0-.1,0-.1.1-.2l.1-.2h0c0-.1,0-.2.1-.2v-.5H32.7V59c0-.1,0-.1.1-.2h2.4v-.5c0-.1-.1-.2-.1-.3v-.1l-.1-.3a.37.37,0,0,0-.1-.3l-.5.1H32.6v-.8Zm6.2,1.6h0a.31.31,0,0,1-.1-.2l-.3-.6c-.1-.2-.1-.4-.2-.6a2,2,0,0,1,.4-.8c.1-.2.3-.3.4-.5v-.4l-1.8-.4h0a4.62,4.62,0,0,0-.7.7,4.05,4.05,0,0,0-.5.9c0,.1-.1.2-.1.3v.2a.9.9,0,0,0,.1.5c.1.2.2.3.3.5V58c.1.2.2.3.3.5a1.27,1.27,0,0,1,.1.6v.1h0a1.85,1.85,0,0,1-.2.7,2.65,2.65,0,0,1-.5.6l-.1.1-.1.1.6.3.6.2h.3l.2.1.2.1a1.34,1.34,0,0,0,.7-.6c.2-.3.3-.5.5-.8a.37.37,0,0,0,.1-.3,1.41,1.41,0,0,0-.1-.9.66.66,0,0,0-.1-.6ZM29.5,40c-.1-.3-.2-.5-.5-.5-2,0,.2,3,.2,3A5.39,5.39,0,0,0,29.5,40ZM40.2,53c.3,0,.6.1,1,.1h3.4l.1-12.9h-4l-.2,4.3H39.2l-.7.1H37.2l-.6-.1-.4-4.4h-4l-.2.1c.1.6.1,1.2.2,1.8a10.87,10.87,0,0,1,.1,1.8v9.1h3.8l.1-1,.1-1.1.2-2.1.2-.2h2.7a3.4,3.4,0,0,0,1,.1V50a6.15,6.15,0,0,1-.1,1.4A8.08,8.08,0,0,1,40.2,53Zm-5.5-6.2a4.48,4.48,0,0,1-.1,1.2v3.3h0m0,.1h-.4a19.27,19.27,0,0,1,.1-2.4,20.85,20.85,0,0,0,0-2.5v-2.3a17.7,17.7,0,0,0-.1-2.3h.4c0,.4.1.7.1,1.1v3.2l.3.2h7.4v-4.5h.4v9.5l-.1.1h-.3v-4.7Zm11.6-1.7c0,1-.1,2.1-.2,3.2h.2a.9.9,0,0,0,.5.1h2.1l.4-.1.7-.1h.6c0-.4-.1-.9-.1-1.3a1.7,1.7,0,0,0-.1-.7V40.16H45.6c.1,1,.2,2,.2,2.9s.1,1.8.1,2.8v.7a6.59,6.59,0,0,1,.3,3.1Zm2-7.8h.2a.35.35,0,0,1,.2.1.37.37,0,0,1,.1.3h0v.2l-.1,8.8h-.4Zm4.1,1.4c-.1.2-.1.4-.2.6s-.1.3-.1.5a2.92,2.92,0,0,0,.2.9v.1c.2.3.3.7.5,1l.1.1a.1.1,0,0,0,.1.1c.2.4.5.7.7,1.1a2.66,2.66,0,0,1,.3,1.2v.3a2.39,2.39,0,0,1-.5,1.4l-.9,1.2-.2.2h0l-.1.1a.35.35,0,0,0,.2.1,3.7,3.7,0,0,0,1.1.5l.8.2.5.2.3.1.3.1h0l.3.1.3.1a3.74,3.74,0,0,0,1.5-1.3,9.5,9.5,0,0,0,1-1.7,1.45,1.45,0,0,0,.2-.7,1.27,1.27,0,0,0,.1-.6,5,5,0,0,0-.2-1.2c-.2-.4-.3-.7-.5-1.1l-.1-.2c0-.1-.1-.1-.1-.2l-.6-1.2a2.66,2.66,0,0,1-.3-1.2,14.17,14.17,0,0,1,.8-1.8,6.2,6.2,0,0,1,1.4-1.4v-.4l-2-.3-1.5-.3-.8-.2h0c-.5.5-1,1-1.5,1.6a9.46,9.46,0,0,0-1.1,2Zm2.1.2a1.61,1.61,0,0,1,.4-.7c.1-.1.2-.1.2-.2s.1-.2.2-.3h0c.1-.1.2-.3.3-.4s.1-.1.2-.1.2-.1.3-.1h.1v.1c0,.1-.1.2-.1.3a.76.76,0,0,0-.2.4l-.1.2-.1.2a1.61,1.61,0,0,0-.4.7,1.85,1.85,0,0,0-.2.7,3.55,3.55,0,0,0,.2,1c.1.3.3.7.4,1l.1.3.1.3c.2.5.4.9.6,1.4a3.08,3.08,0,0,1,.3,1.3,2,2,0,0,1-.3,1.1,2.84,2.84,0,0,1-1,.9l-.2.1-.1-.1h0a4.81,4.81,0,0,0,.9-1.1,1.39,1.39,0,0,0,.2-1.1,3.55,3.55,0,0,0-.2-1c-.1-.3-.3-.7-.4-1l-.1-.3-.2-.3c-.2-.4-.4-.8-.6-1.3a2.77,2.77,0,0,1-.3-1.3v-.7Zm8.4.2h.8v4.1c0,.6-.1,1.1-.1,1.7s-.1,1.1-.1,1.7a8.75,8.75,0,0,1-.2,1.6l.2.2H68l-.2-1.7V46a14.92,14.92,0,0,1,.2-2.1h1l.4.1h.2l.3.1h.5c.1-.3.1-.6.2-.8s.1-.5.2-.8h0l.2-.9c0-.1,0-.1.1-.2v-.2a2.77,2.77,0,0,0,.1-.9H63.8a3.4,3.4,0,0,1-1-.1h-.3c-.3,0-.6-.1-.9-.1,0,.1-.1.2-.1.3s-.1.3-.2.4a1.06,1.06,0,0,0-.2.5,9.25,9.25,0,0,1-.3,1c0,.1-.1.3-.1.4h0c-.1.2-.1.3-.2.5s-.1.3-.2.5h.9l.4-.1h.1l.5-.1a1,1,0,0,0,.6.2Zm-.4-1.5c0-.1.1-.2.2-.3s.3-.1.4-.1h.3c.1,0,.1,0,.2-.1h5.9l-.2.3-.2.3H66.3v9.3h-.7v-9.3a.6.6,0,0,1-.4-.1H63a.63.63,0,0,1-.6,0Zm22.1,4.2v-1.1a3.55,3.55,0,0,0-.2-1,3.69,3.69,0,0,0-.7-1.4,4.48,4.48,0,0,0-2.3-2.2,8.53,8.53,0,0,0-3.1-.6h-.5c-.5,0-1,.1-1.5.1a2.92,2.92,0,0,0-.9.2.9.9,0,0,0-.5.1A8,8,0,0,0,72.7,42l-.2.2a6,6,0,0,0-1.3,2.5,2.49,2.49,0,0,0-.1.8v1a9.26,9.26,0,0,0,.4,2.3,6.15,6.15,0,0,0,1.2,1.9h0l.2.2a5.26,5.26,0,0,0,2.8,1.8h0a12.41,12.41,0,0,0,2.7.3h.9a4.2,4.2,0,0,0,2.6-1.2,10.59,10.59,0,0,0,1.2-1,4.44,4.44,0,0,0,.8-1.1v-.2c.1-.4.2-.9.3-1.3a6.75,6.75,0,0,0,.2-1.4.6.6,0,0,1,.1-.4Zm-1.7,1.2a2.92,2.92,0,0,1-.2.9,5.27,5.27,0,0,1-4.2,3H77.2a4.74,4.74,0,0,1-2.7-1.2,1.21,1.21,0,0,1-.5-.5l-.1-.1a4,4,0,0,1-1-1.8.37.37,0,0,0-.1-.3v-.9a5.93,5.93,0,0,1,.5-2.3,4.28,4.28,0,0,1,1.5-1.8,2.07,2.07,0,0,1,1-.6l.3-.1a3.89,3.89,0,0,1,1.5-.2h.6a.75.75,0,0,1,.5.1,1.42,1.42,0,0,1,.6.2,6.12,6.12,0,0,1,1.2.5,7.89,7.89,0,0,1,1.5,1.2,3.69,3.69,0,0,1,.7,1.4c0,.2.1.4.1.6a3.07,3.07,0,0,1,0,1.9Zm-1.4-3.8h0l-.2-.2a4.7,4.7,0,0,0-1.2-.9,3.36,3.36,0,0,0-1.4-.5h-.9a4.55,4.55,0,0,0-2,.5,8,8,0,0,0-1.7,1.5c-.2.3-.4.7-.6,1a5,5,0,0,0-.2,1.2v.3a2.77,2.77,0,0,0,.1.9c0,.2.1.3.1.5a.76.76,0,0,0,.2.4,4.13,4.13,0,0,0,1.5,1.7c.1,0,.1.1.2.1a4.76,4.76,0,0,0,2.3.7h1.1a5.12,5.12,0,0,0,2.1-1h.1l.2-.2a3.47,3.47,0,0,0,1.2-1.9h0a.37.37,0,0,1,.1-.3v-.4h0v-.4a6.3,6.3,0,0,0-1-3Zm-.7,3.8a2.18,2.18,0,0,1-.5.8l-.2.1-.2.2a3,3,0,0,1-.7.5,6.47,6.47,0,0,1-1.3.4,4,4,0,0,1-1.6-.8h-.1a6.89,6.89,0,0,1-1.1-1.3c0-.1-.1-.1-.1-.2s-.1-.3-.1-.4v-.4a5,5,0,0,1,.2-1.2,3.59,3.59,0,0,1,.7-1,4.05,4.05,0,0,1,.9-.5,3.55,3.55,0,0,1,1-.2h.2a3,3,0,0,1,1.6.5,3.18,3.18,0,0,1,1.1,1.2,1.42,1.42,0,0,1,.2.6c0,.2.1.4.1.7a3.4,3.4,0,0,0-.1,1Zm6.2-7.4h-1c.1,1,.2,2,.2,3s.1,1.8.1,2.7v.7c0,1,0,2-.1,3.1s-.1,2.1-.2,3.2c.2.1.5.1.7.2h2.5l.7-.1h.6c-.1-.7-.1-1.4-.2-2.1v-6.7h0a13.4,13.4,0,0,1,.1-2,13.35,13.35,0,0,0,0-2H86.9Zm1.1,1.7h.2c.1,0,.2,0,.2.1s.1.2.1.3v.3l-.1,8.8H88Zm8.2,7.7.1-.1h0V49c0-.1.1-.1.2-.1h.1c.1,0,.1.1.2.2l.2.2a4.62,4.62,0,0,0,.7.7l1,1.3h0l.5.9a4.35,4.35,0,0,0,.6.7h2.8l.3-.1c.2,0,.3-.1.5-.2a5.36,5.36,0,0,0-.5-1.1l-.1-.2a.52.52,0,0,1-.2-.4L102,50h0l-.6-.9-.1-.2-.1-.1a3,3,0,0,1-.4-.8.35.35,0,0,1-.1-.2h0l.3-.3.4-.3h0a4.62,4.62,0,0,0,.7-.7l.2-.2a3.59,3.59,0,0,0,.7-1v-1.1a2,2,0,0,0-.1-.8c0-.2-.1-.3-.1-.5a.76.76,0,0,0-.2-.5,2.89,2.89,0,0,0-1.2-1.5l-.3-.3c-.2-.1-.3-.2-.5-.3a6.89,6.89,0,0,1-.8-.3,12.25,12.25,0,0,0-1.9-.2h-1a3.4,3.4,0,0,0-1,.1H95L94,40H92.1l-.1.1v3.5h0v7.1c0,.5-.1,1-.1,1.5l.2.2h4Zm-1-1.8h-.8v3.5l-.1.1h-.1c-.1,0-.1,0-.2-.1v-.1l-.1-.1v-9.4a7.72,7.72,0,0,1,1.5-.2h.1c.4,0,.9-.1,1.3-.1h.9c.3,0,.6.1.9.1l.3.1a2,2,0,0,1,.8.4h0a2.84,2.84,0,0,1,.9,1,1.42,1.42,0,0,1,.2.6c0,.2.1.4.1.6v.4a.9.9,0,0,1-.1.5c0,.2-.1.3-.2.5s-.1.1-.1.2a2.7,2.7,0,0,1-.7.8,2.09,2.09,0,0,1-.6.4c-.2.1-.3.2-.5.3l-.3.1-.3.1a7.46,7.46,0,0,0,.7,1.2l.2.2.1.2.1.2a5.5,5.5,0,0,0,.7.9l.1.2a.35.35,0,0,1,.1.2l.4.5.4.5h-.3a12,12,0,0,1-1.1-1.2,14.63,14.63,0,0,1-.9-1.3v-.2c0-.1-.1-.1-.1-.2l-.3-.4-.1-.2c-.1-.2-.2-.3-.3-.5H95.9Zm2-.4,1.4-.3a2.93,2.93,0,0,0,1.6-1.3h0c.1-.2.2-.3.2-.5h0c0-.2.1-.4.1-.6v-.5a.6.6,0,0,0-.1-.4c0-.1-.1-.3-.1-.4a2.54,2.54,0,0,0-1.3-1.2,5.82,5.82,0,0,0-1.9-.3H94.9l-.4.1h0l-.1,5.2.3.2h2.5Zm-.8-1.6c0-.1-.1-.2-.1-.3V43a.6.6,0,0,1,.4-.1.6.6,0,0,0,.4-.1,1.69,1.69,0,0,1,1,.3l.1.1a2.34,2.34,0,0,1,.7.7v.4c0,.2,0,.3-.1.4v.1c-.1.1-.1.2-.2.3a3.74,3.74,0,0,1-.7.6h-.1a.52.52,0,0,1-.4.2h-.2l-.3.1h-.4v-.1C96.4,45.86,96.4,45.86,96.4,45.76Zm-36.5,10-.2-.4a13.55,13.55,0,0,1-2,.2,12,12,0,0,0-2,.3l-1,.1-1,.1v1.3c0,.4.1.9.1,1.3v2.7a5.7,5.7,0,0,1-.1,1.3,5.7,5.7,0,0,1-.1,1.3h-.3c-.1-.1-.1-.2-.2-.2s-.1-.2-.2-.2a16.61,16.61,0,0,0-1.3-1.4l-1.4-1.5c-.8-.8-1.5-1.7-2.3-2.5a13.09,13.09,0,0,1-1.9-2.7H44.6l-1.1-.1H41.7a1.7,1.7,0,0,0-.7.1c.1,1.5.1,2.9.2,4.5s.1,3.1.1,4.6v9.1c0,.2-.1.3-.1.5v.4a.37.37,0,0,0,.1.3h5.8l.2-8.4a16.61,16.61,0,0,1,2.7,2.6c.8,1,1.6,1.9,2.4,2.9l.2.3.3.3.9,1.1c.3.4.6.7.9,1.1.4,0,.8.1,1.3.1h2.6c.4,0,.8-.1,1.2-.1,0-1.4-.1-3-.1-4.6v-4.9c0-1.7,0-3.3.1-4.9s0-3.1.1-4.6Zm-2.9,17h-.5l-1-1.2-1-1.2-2.4-2.7c-.8-.9-1.6-1.8-2.4-2.6s-1.6-1.9-2.5-2.8-1.7-1.8-2.6-2.8v13a.1.1,0,0,1-.1.1h-.6v-4.4a24.37,24.37,0,0,0-.1-2.7v-7.7c1.1.9,2.1,1.9,3.1,2.9s1.9,2.1,2.8,3.1c.3.3.6.7.9,1s.6.7.9,1l2.3,2.6c.8.9,1.6,1.6,2.4,2.4l.3-12.6a.22.22,0,0,1,.2-.2.37.37,0,0,1,.3-.1h.1Zm23.8-13.1a7.44,7.44,0,0,0-3.6-3.4,12.67,12.67,0,0,0-4.7-.9h-.6a16.35,16.35,0,0,0-2.2.2,15.52,15.52,0,0,0-2.1.4,9.66,9.66,0,0,0-3.4,2.6,8.46,8.46,0,0,0-2.2,5c0,.4-.1.9-.1,1.3v.3a9.74,9.74,0,0,0,.6,3.4,8.53,8.53,0,0,0,1.9,3,6.69,6.69,0,0,0,4.4,2.9,25.73,25.73,0,0,0,5.5.6,7,7,0,0,0,3.9-1.8A18.07,18.07,0,0,0,81.1,70v-.2c.2-.6.3-1.3.5-2a17,17,0,0,0,.4-2.2c0-.2.1-.4.1-.7v-.7a10.68,10.68,0,0,0-.3-2.5A3,3,0,0,0,80.8,59.66Zm-1,7a6.11,6.11,0,0,1-.3,1.3,8,8,0,0,1-7.4,4.5h-.8a8.77,8.77,0,0,1-4.1-1.7,7.61,7.61,0,0,1-2.5-3.6c0-.1-.1-.3-.1-.4v-1.2a8.42,8.42,0,0,1,.7-3.5,6.72,6.72,0,0,1,2.2-2.8,8.17,8.17,0,0,1,2-1.2,5.87,5.87,0,0,1,2.3-.4h.8c.3,0,.5.1.8.1a8.25,8.25,0,0,1,2.6,1,9.62,9.62,0,0,1,2.2,1.8,7.76,7.76,0,0,1,1.2,2.2,10.05,10.05,0,0,1,.4,2.5,3.3,3.3,0,0,1,0,1.4ZM77.7,61l-.1-.1-.2-.1a22,22,0,0,0-1.8-1.4,5.28,5.28,0,0,0-2.2-.8c-.2,0-.3,0-.4-.1h-.8a6.11,6.11,0,0,0-3,.8,8.81,8.81,0,0,0-2.5,2.2,4.81,4.81,0,0,0-.8,1.6,10.62,10.62,0,0,0-.4,1.9v.4a6.6,6.6,0,0,0,.1,1.4,3.49,3.49,0,0,0,.5,1.3,7,7,0,0,0,2.5,2.6,10.42,10.42,0,0,0,3.4,1.1h1l.3-.1.3-.1a7.29,7.29,0,0,0,3.2-1.5,5.89,5.89,0,0,0,2.1-3c0-.1.1-.3.1-.4s.1-.3.1-.4v-.8a6.72,6.72,0,0,0-.4-2.4,6.81,6.81,0,0,0-1-2.1Zm-1.2,5.7a3.75,3.75,0,0,1-.7,1.2,6.57,6.57,0,0,1-1.7,1.2,6.64,6.64,0,0,1-2,.6,4.72,4.72,0,0,1-2.5-1.1,7.23,7.23,0,0,1-1.7-2.2c-.1-.4-.1-.8-.2-1.1a3.92,3.92,0,0,1,.4-1.8A4.18,4.18,0,0,1,69.2,62a3.53,3.53,0,0,1,1.3-.8,4,4,0,0,1,1.5-.3h.3a5.13,5.13,0,0,1,2.4.7,4.24,4.24,0,0,1,1.7,1.8l.3.9a3.4,3.4,0,0,1,.1,1,3.93,3.93,0,0,1-.3,1.4Zm14.6,1.6v-6.8a14.77,14.77,0,0,1,.1-2.1v-4c-.4,0-.7-.1-1-.1H87.5l-1.6.1H84.3c.2,1.6.3,3,.4,4.4s.1,2.8.1,4.1v1c0,1.5,0,3.1-.1,4.6s-.2,3.2-.2,4.9a3.59,3.59,0,0,0,1.1.2c.4,0,.8.1,1.1.1h.7l.7-.1h.6a1.27,1.27,0,0,0,.6-.1l1-.1c.3,0,.7-.1,1-.1a30.28,30.28,0,0,1-.2-3.1v-2.9Zm-2.6-9.5v.8l-.3,12.7h-.6V58.06l.2-.1h.1a.52.52,0,0,1,.4.2c.1.1.1.3.2.6Zm58.6-32.6c-2.2-5.3-7.7-5.9-10.1-7.7s-9.4-2.2-14-2-6.6,3.1-7.4,3.1-2.6.2-7.9,4.6a12.12,12.12,0,0,0-3.7,4.7h1.8a13.43,13.43,0,0,1,2.8-4.2c2.6-2.4,5.9-4.4,6.6-4.4s2.5.5,2.1.9-3.6,4.6-4.3,5.8c-.6.9-.9,1.7-1.7,2h1.8a24,24,0,0,1,2.5-3.7c.9-1,2.8-2.2,2.7-4s-1.5-1.7-1.5-1.7a17.24,17.24,0,0,1,8-2.3,14.68,14.68,0,0,1,6.8,1.8,9.1,9.1,0,0,1-4,1c-2,0-3.4.3-3.9,1.1s.1-1.1-.8-1.1-4.1,3.6-3.4,4.4,1-.4,1.6-.2-.2.8,0,1.7-3.7,1.6-3.6,3.5.4,2.8,1.6,2.8,3.4-.8,3.6-1.4a1.28,1.28,0,0,1,1.4-.6c.5,0,1.3.2,1.3-.1s-.7-1.1-.1-1.3.8,1.4.8,2,1.5,1.2,1.6.7.2-1,.5-1.1,1,.8,1.3.8.3-1.2,1.4-.1,1.1,2,.1,2-7.6-1.2-8.9-.1-5.2,8.5-3.1,10.6,6.7,2.6,7.4,5.1S126.2,60,129.3,60s5.2-3.1,6.7-6.3,2.1-5.4,2.1-6.7,2.2-4.9,1.4-6.1-4.4-3.4-4.5-4.3-.7-1.9.5-.9,3.5,5,5.3,3.1,1.4-2.6,1.4-2.6a12.28,12.28,0,0,1,2.3,4c.3,1.7.9,4.5,1.7,4.5s1.5-1.4,2-2.1,1.1-1,1.1-.2-.1,2.8-.1,2.8-.9-1.6-2-.3a1.27,1.27,0,0,0,0,1.8h0a1.61,1.61,0,0,0,.7.4,1.56,1.56,0,0,0,.8-.6s-.7,4.9-2.1,7.4a16.7,16.7,0,0,1-10.8,8.6,87.56,87.56,0,0,1-12.4,2.4l.1.1.9,1.8a.6.6,0,0,1,.1.4c2.9.6,12.9-1.9,15.7-3.6s8.3-9.4,9.6-13.4-.2-6.8.9-10.3S149.3,31.36,147.1,26.16Zm.6,20.2c-.4-.2-.2-1.4.3-1.4s.1,1.5-.3,1.4ZM139,62.86a34.41,34.41,0,0,1-7.6,2.7c-2.1.3-8.3.7-7.4-.1,0,0,7.3-1.1,8.5-1.4s7.4-2.3,8.9-3.4-1.3,1.5-2.4,2.2Zm-17.7-39.5c-.5-.1.4-2,1-2.1S122.1,23.56,121.3,23.36ZM149,40.56c-.5.6-2.9,3.1-2.9,2.5s-.8-6.7-4.4-8.6-4-.7-3.7-.2,3.2,1.6,3.2,1.6-1,2.5-2.1,1.9-4.2-4.4-5-4,0,3.2.8,4,3.9,2.9,3.6,4.3-1.6,5.1-1.7,6.4a19,19,0,0,1-2.1,6.2c-1,1.5-4.7,5.9-5.3,3.4s-.1-10-2.9-11.5-6.5-2.7-6.3-4.9,1-8.4,4.3-8,7.8.8,8.7-.6-.7-2.4-1.9-2.9a2.26,2.26,0,0,0-1.8-.1s.2-1.2-.9-1.2a1.5,1.5,0,0,0-1.4,1s-.2-2.7-1.9-2.4-1,1.5-1,1.5a2.21,2.21,0,0,0-1.9.6c-.7.7-2.6,2.3-3.7,1.4s.4-2.4.9-2.7,2.6-1.2,2.5-1.9a1.59,1.59,0,0,1,.7-2,1.54,1.54,0,0,0,1.2-1.7c-.1-.7,1.7-1.9,2.9-1.7s4.1.1,4.6-.6a3.46,3.46,0,0,1,3.2-.8c2.3.5,7.4,2.1,9,4.2s4.9,7.8,5.4,11S149.5,40.06,149,40.56ZM139.5,49c-2.1-.3-3.6,6.6-2.7,6.8C138.4,56.36,141.7,49.36,139.5,49Zm-.2,1.2c1.2.6-1.4,4.7-2,4.6S138.1,49.56,139.3,50.16Zm-33.9-16.1c0,.1.1.1.2.1Zm-10.9,3.6c.2,0,.3.1.5.1l.6.2.6.2a5.88,5.88,0,0,0,2.4-2,1.61,1.61,0,0,0,.4-.7l1.2-2.1a3.58,3.58,0,0,0,.4-1.1,3.4,3.4,0,0,0,.1-1,4.06,4.06,0,0,0-.4-1.9,15.11,15.11,0,0,0-.9-1.8c-.1-.1-.1-.2-.2-.3L99,27a18.65,18.65,0,0,1-1-2,8.3,8.3,0,0,1-.6-2.1A8.64,8.64,0,0,1,98.8,20a9.66,9.66,0,0,1,2.2-2.3v-.6l-6.8-1.4-.1.1-.1.1a29.49,29.49,0,0,0-2.5,2.5,9.68,9.68,0,0,0-1.8,3.1,3.18,3.18,0,0,0-.3.9,2.49,2.49,0,0,0-.1.8,3.29,3.29,0,0,0,.4,1.7c.3.6.6,1.1.9,1.6l.2.2a.22.22,0,0,0,.2.2,17.39,17.39,0,0,1,1.1,1.8,4.55,4.55,0,0,1,.5,2v.4a4.89,4.89,0,0,1-.8,2.3,15.58,15.58,0,0,1-1.6,2l-.1.1-.2.2-.3.3a7.22,7.22,0,0,0,2,.9l2.2.7Zm-1.1-14.8a4.38,4.38,0,0,1,.8-2.5c.1-.1.3-.2.4-.4s.2-.3.3-.5h0v-.1c.2-.2.3-.5.5-.7a1.08,1.08,0,0,1,.7-.3h.2a1.85,1.85,0,0,1-.2.7c-.1.2-.3.5-.4.7s-.1.2-.2.3l-.2.3a6.73,6.73,0,0,0-.7,1.1,2.66,2.66,0,0,0-.3,1.2,5.26,5.26,0,0,0,.4,1.7c.2.6.5,1.1.7,1.7l.2.5.2.5a16,16,0,0,1,1,2.3,5.45,5.45,0,0,1,.5,2.2,4.14,4.14,0,0,1-.5,1.9,5.19,5.19,0,0,1-1.9,1.7l-.3-.3a6.55,6.55,0,0,0,1.5-1.8,3.29,3.29,0,0,0,.4-1.7,4.15,4.15,0,0,0-.3-1.6c-.2-.5-.5-1.1-.7-1.6l-.3-.5-.2-.5c-.4-.7-.7-1.4-1.1-2.1A4.19,4.19,0,0,1,93.4,22.86Zm13.4,17.3h-2.1V53h8.8l.3-.9c0-.1.1-.3.1-.4h0l.1-.4v-.1a.75.75,0,0,0,.1-.5,4.33,4.33,0,0,0,.1-.5h0v-.1h0a.1.1,0,0,0-.1-.1h-4.7a4.1,4.1,0,0,1-1.1-.1v-.8h0v-.4c0-.1.1-.2.1-.3h5.1a.37.37,0,0,1,.1-.3c.1-.1,0-.2,0-.3a.9.9,0,0,0-.1-.5v-.2c-.1-.2-.1-.4-.2-.6v-.1l-.1-.1a1.42,1.42,0,0,1-.2-.6c0-.1-.1-.2-.1-.3s-.1-.2-.1-.4h-.3c-.2,0-.4.1-.7.1h-3.7v-1.2a.22.22,0,0,1,.2-.2h.9a20.9,20.9,0,0,1,2.5.1h.4c.7.1,1.4.1,2.1.2a8.75,8.75,0,0,0-.2-1.6c0-.1-.1-.3-.1-.4a5.73,5.73,0,0,0-.4-1.4.9.9,0,0,1-.1-.5,1.27,1.27,0,0,0-.6.1c-.4,0-.7.1-1.2.1h-2.8a12.75,12.75,0,0,0-2-.1Zm4.2,1.4h1.2v.1h0l.1.1v.1l-.1.1h-5.5c0,.2-.1.4-.1.6v3a2.49,2.49,0,0,0,.1.8h4.9l.1.1v.2h-5.1a3.4,3.4,0,0,1-.1,1v2.6a3.4,3.4,0,0,0,.1,1h5.3l.1.1v.2h-5.8v-9.9h3.6Zm-2.3,29.2h0c-.4-.5-.7-1.1-1.1-1.6a5.56,5.56,0,0,1-.9-1.7l.5-.5.6-.5,1.3-1.3a5.83,5.83,0,0,0,1.1-1.5c0-.1.1-.3.1-.4v-1.9a6.53,6.53,0,0,0-.5-2c0-.1,0-.1-.1-.2h0A6.2,6.2,0,0,0,108,57a3.77,3.77,0,0,0-1.5-.9h-.3l-.9-.3a6.75,6.75,0,0,0-1.4-.2,7.08,7.08,0,0,0-1.4-.1h-1.4c-.5,0-1,.1-1.5.1h-.7l-.7.1-.6.1h-.1l-.7.1-.6.1a12.1,12.1,0,0,1-1.9.1h-.4l-.3.2v13.8c0,.7-.1,1.5-.1,2.2a16.35,16.35,0,0,1-.2,2.2l.3.3h6l.3-5c0-.1.1-.1.1-.2V69h0c.1-.1.2-.2.3-.2h.1l.1.1a10.7,10.7,0,0,1,1.4,1.6c.5.6,1,1.3,1.5,2h0m0,0,.9,1.2.9,1.2h3a5.7,5.7,0,0,0,1.3-.1l1.2-.3a10.42,10.42,0,0,0-1-1.8,20.28,20.28,0,0,0-1.3-1.8Zm3.7.2h0l-.4.1c-.6-.6-1.1-1.2-1.6-1.8s-.9-1.3-1.4-2v-.2l-.6-.8-.1-.1-.6-.9-1,.1H97.1v5.3l-.1.1h-.1a.35.35,0,0,1-.2-.1.37.37,0,0,1-.1-.3h0V57.86l.4-.1.7-.1.4-.1.8-.1a7.57,7.57,0,0,1,1.5-.1h2a5.85,5.85,0,0,1,1.3.2,3.7,3.7,0,0,1,1.8.8,4.74,4.74,0,0,1,1,1,1.38,1.38,0,0,0,.3.4c.1.1.1.2.2.3a1.42,1.42,0,0,1,.2.6,3.4,3.4,0,0,1,.1,1v.4c0,.2-.1.5-.1.7s-.1.5-.2.7a6.1,6.1,0,0,1-1.2,1.6,9.91,9.91,0,0,1-1.7,1.1l-.4.2-.4.2a7.46,7.46,0,0,0,.7,1.2c.3.4.4.6.6.9.5.7.9,1.3,1.4,2l.2.2.2.2.6.8.6.8v.1c-.3,0-.4,0-.5-.1Zm-1.1-8.8a2,2,0,0,0,.4-.8,2.77,2.77,0,0,0,.1-.9v-.6c0-.2-.1-.4-.1-.6s-.1-.4-.2-.6v-.1a2,2,0,0,0-.6-.7,3.07,3.07,0,0,0-1.4-.9l-.2-.1a7.46,7.46,0,0,0-2.6-.4H98.9l-.7.1h-.7v1.9l-.1,6,.4.3h3.7l.4-.1a12.86,12.86,0,0,0,1.9-.4,5.56,5.56,0,0,0,2.2-2.1Zm-3.6,0h0a.91.91,0,0,1-.7.3.6.6,0,0,0-.4.1l-.5.1h-.1l-.3.1h0a2.28,2.28,0,0,1-.3-1.1c0-.4-.1-.8-.1-1.2v-2.4c.2-.1.4-.1.6-.2a1.27,1.27,0,0,1,.6-.1,4.19,4.19,0,0,1,1.6.4l.3.2h.1a3.92,3.92,0,0,1,.8,1v.4a1.66,1.66,0,0,1-.5,1.2,2.19,2.19,0,0,1-1.1,1.2Zm14.6-9h0l-.1.1a25,25,0,0,0-2.3,2.3A9.19,9.19,0,0,0,113,60v.1c-.1.3-.2.5-.3.8V61c0,.2-.1.4-.1.6v.1a3.17,3.17,0,0,0,.4,1.6l.1.1c.2.5.5.9.7,1.3,0,.1.1.1.1.2s.1.1.1.2a9.5,9.5,0,0,1,1,1.7,3,3,0,0,1,.4,1.8V69a3.77,3.77,0,0,1-.7,2.1,11.92,11.92,0,0,1-1.5,1.8l-.3.3-.3.3a11.08,11.08,0,0,0,1.9.9c.6.2,1.3.4,2,.6l.5.1c.2,0,.3.1.5.1l.5.2.5.2.1-.1a5.2,5.2,0,0,0,2.1-1.8l1.5-2.4a4.18,4.18,0,0,0,.4-1,2.77,2.77,0,0,0,.1-.9,3.29,3.29,0,0,0-.4-1.7,5.36,5.36,0,0,0-.5-1.1l-.3-.6-.2-.3-.1-.3c-.1-.2-.2-.3-.3-.5-.2-.4-.5-.9-.7-1.3a4.49,4.49,0,0,1-.5-1.9,12.27,12.27,0,0,1,1.2-2.6,8,8,0,0,1,2-2.1v-.8l-4.5-.9Zm.2,8.1a4.88,4.88,0,0,1,.3.7,3.55,3.55,0,0,0,.4.9l.2.4v.1l.2.3c.2.4.3.7.5,1.1a9.29,9.29,0,0,0,.5,1,4.48,4.48,0,0,1,.4,2,3.37,3.37,0,0,1-.5,1.7,2.18,2.18,0,0,1-.4.5,6.42,6.42,0,0,1-1.3,1l-.3-.3a5.09,5.09,0,0,0,1.3-1.6,3.65,3.65,0,0,0,.3-1.5c0-.3-.1-.7-.1-1s-.1-.3-.1-.4l-.6-1.5c-.1-.2-.2-.3-.2-.4l-.2-.4a2.51,2.51,0,0,0-.4-.7,6.66,6.66,0,0,1-.6-1.2.35.35,0,0,0-.1-.2,4.67,4.67,0,0,1-.3-1.7,3.59,3.59,0,0,1,.2-1.1,2.38,2.38,0,0,1,.6-1.1c.1-.1,1-1.3,1.1-1.5a.86.86,0,0,1,.6-.3h.2V58c0,.2-.1.3-.2.5a2.09,2.09,0,0,1-.4.6l-.2.2-.2.2a5.3,5.3,0,0,0-.6,1,2,2,0,0,0-.3,1.1,2.4,2.4,0,0,0,.2,1.4Zm-13.5-26.2h3a8.34,8.34,0,0,0,1.2-.8l.2-.2a2.75,2.75,0,0,0,.8-1.5.37.37,0,0,1,.1-.3v-.3a2.66,2.66,0,0,0-.3-1.2,8.65,8.65,0,0,0-.7-1h0a2.4,2.4,0,0,0-1.2-.7h-.2a2.77,2.77,0,0,0-.9-.1h-2.3v6.1h.3Zm1.6-2.1v-2.4l.1-.1h.5l.5.4a.52.52,0,0,1,.2.4.6.6,0,0,1,.1.4v.4a1.34,1.34,0,0,1-.6.7,1.14,1.14,0,0,1-.8.3h-.1c.1.1.1,0,.1-.1Zm6.1-2.5h.4a4.87,4.87,0,0,1,1.2.1c.4,0,.8.1,1.2.1,0-.3-.1-.7-.1-1a2.92,2.92,0,0,1-.2-.9c-.3,0-.6.1-.8.1h-2.3a3.4,3.4,0,0,0-1,.1v6.2H114l.1-.4c0-.1,0-.1.1-.2l.1-.2h0c0-.1.1-.1.1-.2v-.4h-2.8v-.6c0-.1,0-.1.1-.2h2.4v-.5c0-.1-.1-.2-.1-.3v-.1h0l-.1-.3c0-.1-.1-.2-.1-.3a.9.9,0,0,0-.5.1h-1.7v-.5c-.2-.4-.2-.4-.2-.6Z"></path><path class="cls-1" d="M238,62.46h-.8l-.8.1h-.2l-.9.1h-.9a2.77,2.77,0,0,1-.9-.1,2.92,2.92,0,0,1-.9-.2l-.6-6.2h-5.8l-.2.2h0v.7c.1.6.1,1.3.2,1.9a4.87,4.87,0,0,0,.1,1.2c.1.4,0,.9.1,1.4a22.6,22.6,0,0,0,.1,2.6,22.53,22.53,0,0,1,0,2.6v5c0,1,0,2,.1,3l5.4.1h0l.5-6,.3-.3h2.4a6.6,6.6,0,0,1,1.4.1,6.75,6.75,0,0,1,1.4.2c0,.3.1.6.1,1v.9a14.77,14.77,0,0,1-.1,2.1c-.1.7-.1,1.3-.2,2a3.75,3.75,0,0,0,1.1.1h4.6l.7-.1v-4.6l.1-13.9-5.7-.1Zm2.8-3.7h.5v13.6l-.1.1-.2.1h-.3v-6.7H229.8a10.87,10.87,0,0,0-.1,1.8v4.7h-.5l-.1-.1c0-1.2,0-2.3.1-3.5s0-2.3,0-3.5v-3.9a24.37,24.37,0,0,0-.1-2.7h.6a8.64,8.64,0,0,1,.1,1.5v4.7l.5.3h10.5Zm-64.1-23,5.6.1c.2,0,.3-.1.4-.4a3.81,3.81,0,0,0,.3-1,1.85,1.85,0,0,0,.2-.7.76.76,0,0,1,.2-.5h5.1c.4,0,.8-.1,1.2-.1a9.83,9.83,0,0,0,.5,1.6l.3.6a1,1,0,0,0,.4.5h6.3a33.74,33.74,0,0,0-1-3.4c-.7-1.9-1.4-4-2.2-6.2l-.2-.5c-.1-.2-.1-.3-.2-.5-.8-2.2-1.6-4.2-2.3-6a14.25,14.25,0,0,0-1.3-2.8h-6.2c-.4,1.1-.9,2.3-1.5,3.8l-1.8,4.5c-1,2.5-1.9,4.7-2.8,6.9a14.19,14.19,0,0,0-1.2,4v.1c.2-.1.2,0,.2,0Zm4.2-4.2c.6-1.7,1.3-3.3,2-5,1-2.3,2-4.6,2.9-6.8.1-.1.1-.3.2-.4l.2-.5a.75.75,0,0,0,.5.1h.9a.75.75,0,0,1,.5.1c.3.7.6,1.5.9,2.2s.6,1.5.9,2.2c.7,1.6,1.4,3.3,2,4.9.4,1.1.9,2.2,1.3,3.3.2.5.4,1.1.6,1.7-.1.1-.2.2-.3.2a.37.37,0,0,1-.3-.1.37.37,0,0,0-.1-.3c0-.1-.1-.2-.1-.4a.76.76,0,0,0-.2-.4l-.2-.4h0a3.74,3.74,0,0,0-.6-1l-10.5.1a.52.52,0,0,0-.2.4l-.2.5a.1.1,0,0,1-.1.1v.1a.1.1,0,0,1-.1.1c-.1.2-.2.5-.3.7s-.1.3-.2.5a.35.35,0,0,1-.1.2h0m.3-.1h0l-.4-.1a14.58,14.58,0,0,1,.7-1.9Zm-18.8-1.5c-.1,1.2-.2,2.3-.3,3.5l.2.4,11.1-.1c.1-.4.3-.9.4-1.3a6.12,6.12,0,0,1,.5-1.2l.3-.7c.1-.2.2-.5.3-.7a9.44,9.44,0,0,0,.3-.9,2.92,2.92,0,0,0,.2-.9,4.1,4.1,0,0,0-1.1.1l-1.1.1-1.2.2c-.4,0-.8.1-1.2.1a11,11,0,0,1-1.8-.2V16.66l-6.6-.3-.3.3c.1,1.6.2,3.4.3,5.2s.1,3.7.1,5.6v1c0,1.1,0,2.3-.1,3.6Zm2.9-12.9h.7a14.77,14.77,0,0,1,.1,2.1v10a7.57,7.57,0,0,0,.1,1.5c.3.1.6.1,1,.2h4.9v.2c0,.1-.1.1-.1.2l-.2.2H171l-6.3-.2Zm23,.4h-.9c-.1,0-.2.1-.2.3-1,2.3-1.8,4.2-2.4,5.6,0,.1-.1.2-.1.3l-.1.3-.9,2.4a16.45,16.45,0,0,0-.7,2h9.9Zm0,9.6h-.8l-.4-.1h-1v-.2a2.77,2.77,0,0,1,.3-1.3c.2-.5.5-1,.7-1.5l.3-.6a2.19,2.19,0,0,1,.3-.5,4.13,4.13,0,0,1,.7,1.1c.2.4.4.8.6,1.3a3.09,3.09,0,0,1,.2.8,1.48,1.48,0,0,1,.1.7V29c-.2.1-.4.1-.6.2Zm26.5-9v13.1a19.27,19.27,0,0,0,.1,2.4h4.8a2.92,2.92,0,0,0,.9-.2V33c0-.5.1-.9.1-1.4a6.75,6.75,0,0,1,.2-1.4l.6.4.1.1.7.5c.9.7,1.7,1.4,2.5,2.1l.2.2a8.64,8.64,0,0,1,1.3,1.4l.2.2a2.65,2.65,0,0,1,.5.6l.6.1,5.3-2.4v-.2l-1-.9-3.1-2.6-1.1-.9-.8-.7L225,27v-.3l1.7-1.7,1.6-1.6c.3-.3.5-.6.8-.9a6.47,6.47,0,0,0,.8-.9,11,11,0,0,1,1.1-1.2l1.1-1.2v-.5l-5.9-2.3-.1.1-.1.1c-.8,1.1-1.7,2.2-2.6,3.3a16.37,16.37,0,0,1-3.1,2.8c-.1-.2-.1-.4-.2-.5a4.33,4.33,0,0,0-.1-.5.75.75,0,0,0-.1-.5v-1.3a2.2,2.2,0,0,1,.1-.8,2.2,2.2,0,0,1,.1-.8,2.15,2.15,0,0,0,0-.8v-.8h-6.4c.1.7.1,1.5.2,2.3a1.8,1.8,0,0,1,.3,1.2Zm2.7,1.3a25.28,25.28,0,0,1,.1-2.8h.7c0,.3.1.6.1,1v6.7a4.1,4.1,0,0,0,.1,1.1,10.55,10.55,0,0,0,3-1.5,30.13,30.13,0,0,0,2.8-2.2,11,11,0,0,0,1.1-1l1-1,.5-.5.5-.5a2.31,2.31,0,0,1,.7-.7,4.62,4.62,0,0,1,.7-.7l.4.2a14.75,14.75,0,0,1-2.6,3c-1,.8-2,1.7-3,2.5l-.1.1-.1.1-.8.6c-.3.2-.6.5-.9.7.4.4.7.8,1.1,1.2l.4.3c.6.5,1.1.9,1.6,1.4.1,0,.1.1.2.2s.1.1.2.1c.4.4.9.7,1.3,1.1.2.2.5.4.7.6l.6.6a6.89,6.89,0,0,1,1.1,1.3h-.8l-.6-.6-1.3-1.3a6.47,6.47,0,0,0-.9-.8,37.62,37.62,0,0,0-3.1-2.5l-.4-.3-.2-.2a2.65,2.65,0,0,1-.6-.5h-.2l-.4.2-.4.2c-.5.2-.9.5-1.3.7,0,.3-.1.7-.1,1.2s-.1.9-.1,1.4v2.8h-.5l-.2.1c0-1.6-.1-3.1-.1-4.7s-.1-3.1-.1-4.5c-.1-1.2-.1-2.2-.1-3.1Zm-6,19.3h-.6a1.27,1.27,0,0,0-.6.1h-1l-.1,6,.3.2h2.2a7.8,7.8,0,0,0,2.2-.4h.2a3.76,3.76,0,0,0,1.8-1.5l.3-.6a1.7,1.7,0,0,0,.1-.7v-.5a.9.9,0,0,0-.1-.5c0-.2-.1-.3-.1-.5a5.55,5.55,0,0,0-.6-.8,2.36,2.36,0,0,0-.9-.6,5.34,5.34,0,0,0-2.2-.3h-.9Zm1.5,1.2c.2.1.3.1.5.2a4.35,4.35,0,0,1,.7.6c.1.1.2.2.2.3v.4a1,1,0,0,1-.4.9c-.2.2-.5.4-.7.6-.1,0-.1.1-.2.1h-.1a2.19,2.19,0,0,1-.5.3c-.2,0-.3.1-.5.1h-.2l-.2.1c0-.1-.1-.2-.1-.3a1.27,1.27,0,0,1-.1-.6v-2.8l.3-.1h.2c.2,0,.3-.1.5-.1.1.2.4.2.6.3Zm-13.3-14.3a8.89,8.89,0,0,0,3.1,4.7,22.2,22.2,0,0,0,4.9,3l.6.3.6.2h1.2l.2-.2c.1-.1.1-.2.2-.2.5-.6.9-1.2,1.4-1.9a11.78,11.78,0,0,0,1.1-1.9l.1-.1h-.1l-.3-.1-.4-.1a27.73,27.73,0,0,1-2.6-1,7.64,7.64,0,0,1-2.3-1.7h0a7.46,7.46,0,0,1-.7-1.2,3.29,3.29,0,0,1-.4-1.7.6.6,0,0,1,.1-.4,4.89,4.89,0,0,1,1.4-1.8,9.39,9.39,0,0,1,1.8-1.2l.5-.2.5-.2c.2-.1.3-.2.5-.2a.9.9,0,0,1,.5-.1h0a2.35,2.35,0,0,0,.8-.2,1,1,0,0,0,.5-.4l.1-.1-.1-.1-3.2-4.1h-.6a4.06,4.06,0,0,0-1.9.4,8.86,8.86,0,0,0-1.7.8l-.3.2-.3.2-.4.2-.5.2a10.34,10.34,0,0,0-3.3,3.6,10.6,10.6,0,0,0-1.3,4.6v.2c.3.2.3.3.3.5Zm2.9-1.6a2.93,2.93,0,0,1,.4-1.6,10.09,10.09,0,0,1,.7-1.5l.4-.4.4-.4a22,22,0,0,1,2.3-2,3.92,3.92,0,0,1,2.6-.9l-1,.7c-.4.2-.7.5-1.1.7a18.63,18.63,0,0,0-2.6,2.3,5,5,0,0,0-1.4,3.1,5.68,5.68,0,0,0,1.6,3.7,16.44,16.44,0,0,0,3.3,2.6,1.27,1.27,0,0,1,.6.1,2.19,2.19,0,0,1,.5.3l-.1.4a8.36,8.36,0,0,1-3.6-1.9,12.22,12.22,0,0,1-2.7-3.3c-.1-.3-.2-.5-.3-.8s-.1-.6-.1-.8Zm8.5,12.8-.5.1h-.5l-1.5.2h-1.7l-.2.1v7.3c0,1.1,0,2.2-.1,3.3,0,.6-.1,1.1-.1,1.7s-.1,1.1-.1,1.7l.2.2h4.6l.2-3.8a.35.35,0,0,0,.1-.2v-.2h0V49c0-.1.1-.1.2-.1h.1a1.38,1.38,0,0,0,.4.3,7,7,0,0,1,.8,1l.3.4a6.07,6.07,0,0,1,.7,1h0l.6.8.1.1c.2.3.5.6.7.9H217a3.4,3.4,0,0,0,1-.1,2.92,2.92,0,0,0,.9-.2,10.09,10.09,0,0,0-.7-1.5,12.13,12.13,0,0,0-1-1.4h0a8.34,8.34,0,0,1-.8-1.2,5.39,5.39,0,0,1-.7-1.3l.4-.4.4-.4a4.74,4.74,0,0,0,1-1,4.44,4.44,0,0,0,.8-1.1v-1.3a4.92,4.92,0,0,0-.4-2.1,3.71,3.71,0,0,0-1.3-1.7,5,5,0,0,0-1.9-1l-.4-.1a11,11,0,0,0-1.8-.2h-1.1A1.38,1.38,0,0,1,210.5,38.86Zm2.3,1.5a2,2,0,0,1,.7.1c.2,0,.3.1.5.1a4.05,4.05,0,0,1,.9.5,5.24,5.24,0,0,1,1,1.1,4.88,4.88,0,0,1,.3.7,1.7,1.7,0,0,1,.1.7V44a1.27,1.27,0,0,1-.1.6c-.1.2-.1.4-.2.5a2.73,2.73,0,0,1-.9,1.2,5.67,5.67,0,0,1-1.3.8l-.3.1-.3.1a6.73,6.73,0,0,0,.7,1.1c.1.2.2.3.3.5.4.5.7,1,1.1,1.5l.1.2.1.2.4.6.4.6h-.4v-.1a1,1,0,0,1-.4-.5,5.5,5.5,0,0,1-.7-.9l-.6-.9-.4-.6v-.1l-.3-.4-.3-.3c-.2-.2-.3-.5-.5-.7h-4v4c0,.1-.1.1-.2.1s-.1,0-.2-.1-.1-.1-.1-.2h0V40.66l1.7-.3c.3,0,.6-.1,1-.1h2Zm15.3,13.1L234.4,40l.2-1.1h-5.1a49450112819388.31,49450112819388.31,0,0,0-.2.6,2.73,2.73,0,0,1-.6,1.2,2.84,2.84,0,0,1-.9,1l-2.1-3h-3.5a2.77,2.77,0,0,0-.9.1h-.9l.6.9c.5.7,1,1.5,1.5,2.2l.3.5c.9,1.3,1.8,2.4,2.8,3.6l.1.4a35.92,35.92,0,0,1-1.7,3.4l-.3.5-.1.1a18.76,18.76,0,0,1-1.2,1.8c-.2.3-.3.5-.5.8v.4h.7l1.8.1,3.6.1Zm-2-1.9h-.6l2.8-5.4-.9-1.2-.9-1.2v-.1l-.1-.1-1.2-1.5c-.4-.5-.7-1-1.1-1.5h.6c.5.7,1,1.4,1.6,2.1s1.1,1.4,1.7,2l.3.4c.1.1.2.3.3.4a8.34,8.34,0,0,0,.8-1.2c.2-.4.4-.9.6-1.3h0v-.1a11.73,11.73,0,0,0,.5-1.1c.2-.3.4-.7.6-1l.6.1-5.6,10.7Zm-56.9-2.5h0a2.52,2.52,0,0,1-.6,1.7,7.55,7.55,0,0,1-1.1,1.4l-.2.2-.2.2a10.09,10.09,0,0,0,1.5.7l1.5.5.4.1.4.1.4.1.4.1a4.57,4.57,0,0,0,1.7-1.4c.4-.6.8-1.2,1.2-1.9.1-.2.2-.5.3-.7a1.7,1.7,0,0,0,.1-.7,2.77,2.77,0,0,0-.3-1.3c-.2-.4-.4-.9-.6-1.3l-.1-.2-.1-.2c-.2-.4-.5-.9-.7-1.4a4.19,4.19,0,0,1-.4-1.5,5.38,5.38,0,0,1,1-2,6.09,6.09,0,0,1,1.6-1.6v-.4l-4.7-1h0a15.27,15.27,0,0,0-1.8,1.8,8.78,8.78,0,0,0-1.2,2.1,1.42,1.42,0,0,0-.2.6h0c0,.2-.1.4-.1.6V44a1.88,1.88,0,0,0,.2.8,10.91,10.91,0,0,0,.6,1.1l.1.2c0,.1.1.1.1.2a5.39,5.39,0,0,1,.7,1.3,3.19,3.19,0,0,1,.3,1.4v.1c-.3-.1-.3-.1-.2,0Zm.6-6.4a3.55,3.55,0,0,1,.4-.9l.3-.3c.1-.1.1-.2.2-.3v-.1c.1-.2.2-.3.3-.5a.76.76,0,0,1,.5-.2h.1c0,.2-.1.3-.2.5s-.2.3-.3.5l-.1.2-.1.2a2.18,2.18,0,0,0-.5.8,2.92,2.92,0,0,0-.2.9,2.66,2.66,0,0,0,.3,1.2,6.12,6.12,0,0,0,.5,1.2l.2.3.1.3a11.11,11.11,0,0,1,.7,1.6,4,4,0,0,1,.3,1.5,2,2,0,0,1-.4,1.3,3.74,3.74,0,0,1-1.3,1.2l-.2-.2a5.8,5.8,0,0,0,1-1.2,2.66,2.66,0,0,0,.3-1.2,3.59,3.59,0,0,0-.2-1.1,3.7,3.7,0,0,0-.5-1.1l-.2-.3-.2-.3c-.2-.5-.5-1-.7-1.5a4,4,0,0,1-.3-1.5c0-.5,0-.8.2-1Zm37.1,14-.2-.4-1.9.2-1.9.3c-.3,0-.7.1-1,.1l-1,.1v1.2c0,.4.1.8.1,1.3a5.7,5.7,0,0,0,.1,1.3,5.65,5.65,0,0,1,0,1.3,6.15,6.15,0,0,1-.1,1.3,6.88,6.88,0,0,1-.2,1.3h-.3c-.1-.1-.1-.2-.2-.2l-.2-.2c-.4-.4-.8-.9-1.2-1.3a17.88,17.88,0,0,1-1.3-1.4c-.7-.8-1.5-1.6-2.2-2.4a14.37,14.37,0,0,1-1.8-2.5h-1.4l-1-.1h-1.7a1.7,1.7,0,0,0-.7.1c.1,1.4.1,2.8.2,4.2s.1,2.9.1,4.4v8.3a.6.6,0,0,1-.1.4v.7a.37.37,0,0,0,.1.3h5.5l.1-8a19.4,19.4,0,0,1,2.6,2.3,30.13,30.13,0,0,1,2.2,2.8l.2.3.2.3.8,1.1c.3.4.6.7.9,1.1a4.87,4.87,0,0,0,1.2.1h2.5a4.87,4.87,0,0,0,1.2-.1c0-1.3-.1-2.8-.1-4.3V66c0-1.5,0-3.1.1-4.7s.4-3.3.4-4.6Zm-2.7,16h-.5l-1-1.2-.9-1.1c-.7-.9-1.5-1.7-2.2-2.6a27.25,27.25,0,0,0-2.3-2.5c-.8-.8-1.6-1.7-2.4-2.5s-1.6-1.7-2.5-2.6v12.3l-.1.1h-.4v-7.8a14.77,14.77,0,0,0-.1-2.1,14.72,14.72,0,0,1,0-2.1v-2.1a38.33,38.33,0,0,1,2.9,2.8c.9,1,1.8,2,2.7,2.9.3.3.6.7.9,1s.6.7.9,1c.7.8,1.4,1.6,2.2,2.4s1.5,1.5,2.2,2.3l.1-12a.35.35,0,0,1,.1-.2.37.37,0,0,1,.3-.1h.1Zm-21.4-11.3-.1-.1-.1-.1a7,7,0,0,0-1.7-1.3,4.79,4.79,0,0,0-2-.7c-.1,0-.3-.1-.4-.1h-.8a6,6,0,0,0-2.9.8,12.06,12.06,0,0,0-2.4,2.1,8,8,0,0,0-.8,1.6,5.66,5.66,0,0,0-.3,1.8v.4a5.7,5.7,0,0,0,.1,1.3,3.08,3.08,0,0,0,.5,1.2,5.8,5.8,0,0,0,2.4,2.5,7.49,7.49,0,0,0,3.3,1h1.2l.3-.1a7.27,7.27,0,0,0,3.1-1.4,5.07,5.07,0,0,0,2-2.8c0-.1.1-.3.1-.4a41102850039731.21,41102850039731.21,0,0,1,.2-.8v-.4a12.32,12.32,0,0,0-1.7-4.5Zm-1.1,5.5A2.59,2.59,0,0,1,181,68a9.55,9.55,0,0,1-1.6,1.2,4.14,4.14,0,0,1-1.9.5,4.29,4.29,0,0,1-2.4-1,8.7,8.7,0,0,1-1.7-2.1,1.27,1.27,0,0,1-.1-.6v-.5a3.53,3.53,0,0,1,.4-1.7,3.93,3.93,0,0,1,3.7-2.4h.2a5.68,5.68,0,0,1,2.2.7,4.36,4.36,0,0,1,1.6,1.7l.3.9a3.4,3.4,0,0,1,.1,1,2.46,2.46,0,0,1-.1,1.2Zm7.2-26.6a5.07,5.07,0,0,0,.2-1.3h-5.9a21.75,21.75,0,0,1-2.6-.1h-.7a12.25,12.25,0,0,1-1.9-.2l-.6,1.5c-.2.5-.3,1-.5,1.6h0c-.1.2-.1.4-.2.6s-.1.4-.2.6h1.1a1.27,1.27,0,0,0,.6-.1l.5-.1h1.4l.2.1h0a6.15,6.15,0,0,0,.1,1.4,6.53,6.53,0,0,1,0,1.4v1.9c0,.7-.1,1.3-.1,1.9s-.2,1.3-.2,1.9a12.25,12.25,0,0,1-.2,1.9l.2.2h5.3l-.2-2a11.48,11.48,0,0,0-.1-1.9,10.82,10.82,0,0,1,0-1.8,19.27,19.27,0,0,1,.1-2.4c.1-.8.1-1.6.2-2.4h1l.6.1.4.1h.7a3.55,3.55,0,0,1,.2-1c.1-.3.2-.7.3-1l.3-.9c-.1.2-.1.1,0,0Zm-2.1.4-.5.6h-3.1v10.6h-.7V41.26l-.5-.1h-3c0-.1.1-.3.2-.3s.3-.1.4-.1h.1l.2-.1h0c.1,0,.1,0,.2-.1h6.8Zm-23.7,25.4c0-.1,0-.2-.1-.2l-.1-.2c-.5-1.4-1-2.8-1.5-4.3s-.9-2.9-1.3-4.4a.9.9,0,0,0-.6-.6c-.3-.1-.6-.1-.9-.2h-2.3a16.67,16.67,0,0,0-.8,2,15.87,15.87,0,0,1-.7,2c0,.1,0,.1-.1.2s0,.1-.1.2l-.6,1.8a13.36,13.36,0,0,1-.7,1.8l-.4.2-.2-.6c-.1-.2-.1-.4-.2-.6s-.2-.5-.3-.7-.2-.5-.3-.7c-.3-.9-.6-1.7-.9-2.6s-.6-1.7-.9-2.6l-3.7-.1-.3.3c-.3,1.6-.6,3.1-.9,4.6s-.7,2.9-1.1,4.5a.76.76,0,0,1-.1.4c0,.1-.1.3-.1.4-.3,1.3-.7,2.7-1,4.1s-.6,2.7-.8,4.1c.5,0,1,.1,1.4.1h3c.5,0,1-.1,1.5-.1.1-1,.3-2.1.5-3.1s.5-2,.7-3a2.38,2.38,0,0,1,.6,1.1c.2.4.3.9.5,1.3,0,.1,0,.1.1.2l.1.2c.1.3.2.7.3,1s.3.6.4.9v.2c0,.6.1.9.4,1.1a2,2,0,0,0,1.1.3h2.4a7.74,7.74,0,0,0,.7-1.6c.2-.6.4-1,.6-1.6,0-.1.1-.3.1-.4s.1-.2.1-.4a7.84,7.84,0,0,0,.5-1.4,5.17,5.17,0,0,1,.6-1.3,5.23,5.23,0,0,1,.6,1.6c.1.6.2,1.1.3,1.7v.2c.1.5.1,1,.2,1.5a8.33,8.33,0,0,0,.4,1.5,7.57,7.57,0,0,0,1.5.1h4.2l.4-.2a30.3,30.3,0,0,0-1.2-4.3c-.5-1.4-.5-3-1-4.4Zm-.6,6.6h-.6a19.69,19.69,0,0,1-.7-2.2c-.3-1.2-.9-2.4-1.3-3.7l-1.3-3.7c-.4-1.2-.7-1.9-.8-2.3l-.3.6c-.6,1.8-1.1,3.6-1.7,5.3s-1.2,3.5-1.9,5.3l-.3-.1c-.4-1.3-.9-2.5-1.4-3.7l-1.6-3.7c-.3-.6-.6-1.3-.9-1.9a15.39,15.39,0,0,1-.8-1.9l-.4.8a32,32,0,0,1-.7,3.3c-.3,1-.5,2.2-.8,3.3l-.1.4c0,.1-.1.3-.1.4a12.09,12.09,0,0,0-.5,1.8,18,18,0,0,1-.5,1.9h-.6c.3-1.1.6-2.2.9-3.4s.6-2.3.9-3.4.6-2.2.9-3.4.6-2.3.9-3.4c.3.6.6,1.4.9,2.2l1.1,2.4c.8,1.8,1.8,4.1,3,7l4.1-11.4.8,2.6c.3.9.7,1.9,1,2.8a.31.31,0,0,0,.1.2c0,.1,0,.1.1.2.6,1.8,1.2,3.4,1.8,5a8.1,8.1,0,0,0,.8,2.7h0c.1.1,0,.1,0,0Zm23.3-12.4a6.64,6.64,0,0,0-3.4-3.2,11.08,11.08,0,0,0-4.4-.8h-.6a14.92,14.92,0,0,0-2.1.2,14.16,14.16,0,0,0-2,.4,8,8,0,0,0-3.2,2.5,10.41,10.41,0,0,0-1.9,3.6,5,5,0,0,0-.2,1.2c0,.4-.1.8-.1,1.2v.2a8.66,8.66,0,0,0,.6,3.2,7.5,7.5,0,0,0,1.8,2.8,7.19,7.19,0,0,0,4.2,2.8,30.52,30.52,0,0,0,5.2.5,6.23,6.23,0,0,0,3.7-1.6,11.8,11.8,0,0,0,2.7-3.2v-.2c.2-.6.3-1.2.5-1.9a13.8,13.8,0,0,0,.3-2c0-.2.1-.4.1-.6v-.6a9.08,9.08,0,0,0-.3-2.3,5.64,5.64,0,0,0-1.1-2Zm-1,6.6a5.27,5.27,0,0,1-.3,1.2,7.86,7.86,0,0,1-2.8,3.2,6.69,6.69,0,0,1-4.1,1.1h-.8a7.73,7.73,0,0,1-3.8-1.7,8.14,8.14,0,0,1-2.4-3.4.6.6,0,0,0-.1-.4v-1.2a9.28,9.28,0,0,1,.7-3.3,7.55,7.55,0,0,1,2.1-2.6,7.24,7.24,0,0,1,1.9-1.1,5.58,5.58,0,0,1,2.2-.3h.7c.3,0,.5.1.8.1a9.89,9.89,0,0,1,2.4.9,9.09,9.09,0,0,1,2.1,1.8,5.64,5.64,0,0,1,1.1,2,9.69,9.69,0,0,1,.3,2.3v1.4Zm5.9-15.8a5.67,5.67,0,0,0,3.4,2.2,19.92,19.92,0,0,0,4.2.4,4.94,4.94,0,0,0,3-1.4,9.22,9.22,0,0,0,2.2-2.6v-.2a6.37,6.37,0,0,0,.2-.7l.2-.6c0-.1,0-.2.1-.2.1-.5.2-1.1.3-1.6a.9.9,0,0,1,.1-.5v-.5a11,11,0,0,0-.2-1.8,4.17,4.17,0,0,0-.9-1.6,5.26,5.26,0,0,0-2.7-2.6,8.89,8.89,0,0,0-3.6-.7h-.5a9.85,9.85,0,0,0-1.7.2c-.6.1-1.1.2-1.6.3a7.27,7.27,0,0,0-2.6,2l-.1.1a9.2,9.2,0,0,0-1.4,2.8,3.4,3.4,0,0,0-.1,1h0v1.1a7.51,7.51,0,0,0,.5,2.6,3.27,3.27,0,0,0,1.2,2.3Zm.7-7.3a5.85,5.85,0,0,1,1.7-2.1,5.07,5.07,0,0,1,1.6-.9,5.66,5.66,0,0,1,1.8-.3h.6a1.27,1.27,0,0,1,.6.1,6.79,6.79,0,0,1,2,.7,11.51,11.51,0,0,1,1.7,1.4,5.07,5.07,0,0,1,.9,1.6,6.28,6.28,0,0,1,.3,1.9,2.77,2.77,0,0,1-.1.9v.1a.49.49,0,0,1-.1.3v.2a.9.9,0,0,1-.1.5v.1a6.37,6.37,0,0,1-5.6,3.4h-.6a6.09,6.09,0,0,1-3.1-1.3,5.43,5.43,0,0,1-1.9-2.8.37.37,0,0,0-.1-.3v-.9a5.69,5.69,0,0,1,.4-2.6Zm.4,4.6a5.2,5.2,0,0,0,1.9,2,7.32,7.32,0,0,0,2.5.8h1.3a6.82,6.82,0,0,0,2.6-1.2,4.61,4.61,0,0,0,1.6-2.3,3662971319955.43,3662971319955.43,0,0,0,.2-.6v-.6a5.23,5.23,0,0,0-.3-1.8,7,7,0,0,0-.9-1.7l-.1-.1h-.1a7.55,7.55,0,0,0-1.4-1.1,5.23,5.23,0,0,0-1.6-.6.37.37,0,0,1-.3-.1h-.7a4.65,4.65,0,0,0-2.3.6l-.2.1a5.72,5.72,0,0,0-1.6,1.5l-.1.2a3.1,3.1,0,0,0-.6,1.3,8,8,0,0,0-.3,1.5v.4a4.1,4.1,0,0,0,.1,1.1,3.33,3.33,0,0,1,.3.6Zm1.6-3.7a2.19,2.19,0,0,1,.3-.5c.2-.2.3-.4.5-.6a4.23,4.23,0,0,1,.7-.5c.1,0,.2-.1.3-.2a5,5,0,0,1,1.2-.2h.2a3,3,0,0,1,1.8.6,2.74,2.74,0,0,1,1.5,2.1c0,.3.1.5.1.8a4.25,4.25,0,0,1-.2,1.1,2.36,2.36,0,0,1-.6.9,3.81,3.81,0,0,1-1.3.9,4.19,4.19,0,0,1-1.5.4h-.2a3.7,3.7,0,0,1-1.8-.8A7.46,7.46,0,0,1,193,47c0-.1-.1-.3-.1-.4v-.4a5.27,5.27,0,0,0,.5-1.5Zm-44.9-12a2,2,0,0,1,.8.1l.8.1h.9a8.52,8.52,0,0,0,2.3-.3,4.9,4.9,0,0,0,2-1.1.52.52,0,0,0,.2-.4c0-.1.1-.3.1-.4a1.27,1.27,0,0,0-.1-.6c-.1-.2-.1-.4-.2-.6a3.57,3.57,0,0,0-1.9-2.1c-.1-.1-.2-.1-.3-.2l-.9-.3a2.92,2.92,0,0,0-.9-.2,6.75,6.75,0,0,0-1.4-.2h-2.7v1l-.1,5.2.7.1Zm1-3.9a2.54,2.54,0,0,1,.2-.7h.3a2.93,2.93,0,0,1,1.6.4l.1.1a4.26,4.26,0,0,1,1.2,1.1.35.35,0,0,1,.1.2v.2a.37.37,0,0,1-.1.3c-.1.1-.2.2-.3.2l-.1.1-.1.1h-.2a2.92,2.92,0,0,0-.9.2h-.2l-.5.1a4.33,4.33,0,0,0-.5.1h-.4c-.1-.2-.1-.5-.2-.7s-.1-.5-.1-.7a3.08,3.08,0,0,1,.1-1Zm10.8,13.5c0,1.1.1,2.1.1,3.2v.7c0,1.2,0,2.3-.1,3.5s-.1,2.3-.2,3.5v.2h0c.3.1.5.1.8.2h2.6a.9.9,0,0,0,.5-.1l.7-.1.7-.1c-.1-.8-.1-1.6-.2-2.4a20.08,20.08,0,0,1-.1-2.5v-5.6a12.1,12.1,0,0,1,.1-1.9,17.58,17.58,0,0,0,0-2.3,2.2,2.2,0,0,1-.8-.1h-2.1l-1.2.1H160c.1.6.1,1.3.2,1.9s0,1.2.1,1.8Zm2.2-1.6.1-.1h.1c.1,0,.2.1.3.2s.1.2.2.4v.4l-.2,10.1h-.5Zm-14-14.9H152l1-.1c.1-.1.3-.1.4-.2a4.44,4.44,0,0,0,1.1-.8,5.83,5.83,0,0,0,1.1-1.5.1.1,0,0,1,.1-.1v-.4a1.69,1.69,0,0,0-.3-1,8.65,8.65,0,0,0-.7-1l-.2-.3c0-.1-.1-.1-.1-.2a2.56,2.56,0,0,0-1.3-1,4.68,4.68,0,0,0-1.7-.2H150l-.7.1h-1.2l-.5-.1-.2,5.7v1l1.1.1Zm.9-3.3v-.3c0-.2.1-.3.1-.5s.1-.3.1-.4,0-.1.1-.2.1-.1.1-.2h.6a3.59,3.59,0,0,1,1.1.2,3.13,3.13,0,0,1,1,.5,1,1,0,0,1,.4.5,1.27,1.27,0,0,1,.1.6v.6a1.59,1.59,0,0,1-1,.8,5,5,0,0,1-1.2.2h-1l-.3-.6a1.27,1.27,0,0,1-.1-.6v-.6Zm-4.6,13.1h1a10.87,10.87,0,0,1,1.8.1l1.8.2,1.8.1c.6,0,1.2.1,1.8.1a10.88,10.88,0,0,0,4-.7,5.36,5.36,0,0,0,2.8-3.1c.1-.2.1-.4.2-.6a.75.75,0,0,1,.1-.5,3,3,0,0,0-.5-1.5,15,15,0,0,0-1.1-1.3h0l-.7-.7c-.2-.2-.4-.5-.6-.7l2.4-3.2a1.42,1.42,0,0,0,.2-.6,4.33,4.33,0,0,1,.1-.5,2.39,2.39,0,0,0-.5-1.4,10.59,10.59,0,0,0-1-1.2l-.2-.3-.2-.3-.2-.2-.2-.2a4.44,4.44,0,0,0-2.5-2,11.27,11.27,0,0,0-3.2-.5h-1.4l-1.4.1c-.5,0-.9.1-1.4.1h-2.6a3.59,3.59,0,0,1-1.1-.2l-.2.1-.4,18.5.4.6c.4-.1.7-.1,1-.2Zm1.6-16.9c.5-.1,1-.2,1.6-.3a8.08,8.08,0,0,1,1.6-.1,16.35,16.35,0,0,1,2.2.2,17,17,0,0,1,2.2.4,2.18,2.18,0,0,0,.4.5l.5.5.1.1a.1.1,0,0,0,.1.1,5.8,5.8,0,0,1,1,1.2,2.39,2.39,0,0,1,.5,1.4V23a.37.37,0,0,1-.1.3,6.55,6.55,0,0,1-1.5,1.8,5.5,5.5,0,0,1-.9.7c-.3.2-.7.3-1,.5l.6.5c.2.2.4.3.6.5h.1a10.7,10.7,0,0,1,1.4,1.6,4,4,0,0,1,.7,1.9V31a4.33,4.33,0,0,1-.5,1.2,2.84,2.84,0,0,1-1.1.8,9.58,9.58,0,0,1-3.9.6h-4.4Zm6.9,34.8a4.48,4.48,0,0,0,1.1.1h3l1-.1h0v-.3l.1-12.2v-2.2h-.2l-4.5-.1-.2,5h-1.4l-.7.1h-1.4l-.7-.1-.5-5-4.7-.1-.2.2c.1.7.1,1.4.2,2.1a14.77,14.77,0,0,1,.1,2.1v8a19.27,19.27,0,0,0,.1,2.4l4.3.1.4-4.9.2-.3h2a4.1,4.1,0,0,1,1.1.1c.4.1.7.1,1.1.2,0,.3.1.5.1.8v.7a9.7,9.7,0,0,1-.1,1.7,8.81,8.81,0,0,1-.2,1.7Zm-6.3-7.1a7.57,7.57,0,0,0-.1,1.5v3.8h-.5a26.2,26.2,0,0,1,.1-2.8,26.15,26.15,0,0,0,0-2.8v-2.7a24.37,24.37,0,0,0-.1-2.7h.5a5.74,5.74,0,0,1,.1,1.2v3.7l.4.3h8.5v-5.2h.5v10.9a.1.1,0,0,0-.1.1H156v-5.4Zm76.8,10.1h-7c-1.1,0-2.2,0-3.3-.1s-2.1-.1-3.2-.3a13.36,13.36,0,0,0-.7,1.8c-.2.7-.4,1.3-.6,1.9v.1a1.85,1.85,0,0,0-.2.7,1.85,1.85,0,0,1-.2.7h1.3c.3,0,.5-.1.7-.1l.7-.1H213a.37.37,0,0,1,.3.1c0,.6.1,1.2.1,1.8v4.2c0,.8-.1,1.6-.1,2.4a19.42,19.42,0,0,1-.2,2.4l-.3,2.4.2.3h6.6l-.4-2.4a17,17,0,0,0-.1-2.3,17.63,17.63,0,0,1,0-2.3,27.15,27.15,0,0,1,.1-2.9c.1-.9.1-2,.2-3h.5a2.2,2.2,0,0,1,.8.1h.2l.5.1.7.1c.2,0,.5.1.7.1.1-.4.1-.8.2-1.2l.3-1.2c.1-.4.3-1,.4-1.6.1-.3.1-.5.2-.8v-.5c.1-.2,0-.2,0-.2h-.4ZM221,59l-.2.3h-3.9v13.2h-1V59.36c-.2,0-.4-.1-.6-.1h-3.1a1.27,1.27,0,0,1-.6-.1h0a.52.52,0,0,1,.2-.4,1.09,1.09,0,0,1,.5-.1h.1l.4-.1a.35.35,0,0,0,.2-.1h8.5Z"></path></g></g></svg>