<svg xmlns="http://www.w3.org/2000/svg" viewBox="0 -6 819.17 227"><defs></defs><g id="Layer_2" data-name="Layer 2"><g id="Layer_1-2" data-name="Layer 1"><path class="cls-1" d="M818.81,211.69h-55.7l2.79-2.21c3.32-2.62,6.74-5.14,9.91-7.92a5.59,5.59,0,0,0,1.75-3.65c.22-16.86.37-33.72.36-50.58A48.41,48.41,0,0,0,775.27,132c-3.84-11.5-15-12.93-23.32-8.48a22.56,22.56,0,0,0-9.26,9.28,6.39,6.39,0,0,0-.8,2.92c0,20.64,0,41.28-.06,61.92a5.34,5.34,0,0,0,2.41,4.79c3.57,2.5,7,5.14,10.54,7.73.49.37,1,.76,1.9,1.5h-56c.72-.63,1.13-1,1.59-1.39,3.45-2.56,6.89-5.13,10.38-7.63a5.59,5.59,0,0,0,2.5-5q-.07-36.74,0-73.45a6,6,0,0,0-2.41-5.19c-3.6-2.89-7.06-6-10.58-9-.43-.36-.93-.65-1.39-1l.32-.5a12.18,12.18,0,0,1,1.48-.16h37.3c1.62,0,2,.54,2,2-.06,5.73,0,11.46,0,17.19a4,4,0,0,0,.62,2.28c.33-.73.69-1.44,1-2.17,4.39-10.77,11.74-18.35,23.51-20.31,9.87-1.64,19.43-.74,27.14,6.74,4.88,4.74,7.34,10.81,8.82,17.3,2.59,11.29,2,22.78,1.91,34.22q-.12,15.72-.43,31.45a6.07,6.07,0,0,0,3,5.67c3.62,2.43,7.06,5.12,10.58,7.68a10,10,0,0,0,1.15.65Z"></path><path class="cls-1" d="M413,195.23c1.76,6.37-6.08,16-14.3,17.7-11.57,2.39-22.93-2.41-24.47-19.53-1.39,2.46-2.63,4.93-4.12,7.23-7,10.79-19.12,14.51-31.23,12.07-13.35-2.69-20.83-14-21.24-26.1-.34-10.32,3.06-18.82,11.15-25.17,7.35-5.77,16-8,25.23-7.68,6.95.21,13.53,1.69,19.45,5.5a4.55,4.55,0,0,0,.73.27c.12-.25.26-.41.26-.57,0-9.69.38-19.41-.16-29.07-.39-6.89-2.9-13.24-9.36-17.1-3.73-2.22-7.85-2.66-12.07-2.45a4.12,4.12,0,0,0-3.57,2.63c-4.46,9-9,18-13.48,27.05-.42.84-.9,1.66-1.61,3-.63-1.51-1.09-2.53-1.49-3.57-3.05-7.81-6.05-15.64-9.16-23.43-.56-1.41-.39-2,1.08-2.57a100.56,100.56,0,0,1,42.31-6.38,60.92,60.92,0,0,1,12.31,1.77c10.1,2.78,16.11,9.79,19,19.68,2.57,9.06,2.85,18.34,2.57,27.66-.32,10-.91,20-1.16,30.06a38.82,38.82,0,0,0,1,9.24c.6,2.78,2.66,4.35,5.65,4.53a6,6,0,0,0,6-3.5Zm-38.83-19.39h.29V163c0-1.15-.26-1.89-1.51-2-3.6-.36-7.22-1.14-10.8-1a17.91,17.91,0,0,0-14.26,7.66c-5.06,7-5.68,18.55-1.21,25.9a12.3,12.3,0,0,0,7.48,5.85c7,1.83,12.41-.85,17.16-5.69a8.94,8.94,0,0,0,2.88-7.12c-.19-3.56,0-7.15,0-10.72Z"></path><path class="cls-1" d="M138.52,142.44l-3.81-9.78c-2.17-5.57-4.28-11.17-6.54-16.71-.6-1.47-.26-2,1.14-2.54A101,101,0,0,1,171.43,107a62.07,62.07,0,0,1,12.13,1.69c10.26,2.74,16.42,9.77,19.31,19.82,2.58,8.93,2.86,18.1,2.58,27.29-.32,10.16-.88,20.3-1.19,30.45a45.29,45.29,0,0,0,.63,8.14,6.17,6.17,0,0,0,5.09,5.45c3.26.54,5.19-.39,7-3.39a2.24,2.24,0,0,1,.78-.92c.33,4.25-1.37,7.86-4,11-5.37,6.35-12.52,8.15-20.3,6.43-10.18-2.25-13.58-10.08-14.53-19.58-1.51,2.62-2.8,5.22-4.4,7.6-7.21,10.72-18.93,14-30.45,11.84-14.59-2.77-21.94-14.78-21.83-28.41.1-13.28,8.39-24.09,21.14-28.33,11.81-3.93,23.43-3.42,34.44,3a5.58,5.58,0,0,0,.69.35,5.52,5.52,0,0,0,.81-.06v-8.66c-.07-6.95.15-13.93-.33-20.86-.37-5.51-2.17-10.73-6.32-14.75-4.31-4.16-9.67-5.09-15.37-4.74A4,4,0,0,0,154,113q-6.75,13.56-13.53,27c-.42.84-.9,1.64-1.36,2.47Zm40.29,33.33h.29V163.09c0-1.21-.22-2-1.58-2.16-3.6-.34-7.22-1.13-10.8-1-5.85.26-10.92,2.71-14.19,7.74-5.22,8-5.74,16.56-1.55,25.19a11.73,11.73,0,0,0,7.69,6.44c6.94,1.9,12.42-.73,17.2-5.55a9,9,0,0,0,3-7.28C178.64,182.93,178.81,179.35,178.81,175.77Z"></path><path class="cls-1" d="M691.22,153.24H627.63c.36,5,.48,9.77,1.12,14.5,1,7.44,3.43,14.4,8.26,20.33,6,7.38,14,10.4,23.28,9.94,13.56-.66,22.92-7.76,29-19.57.46-.89,1-1.77,1.43-2.65l.61.23c-1.11,3.62-2,7.31-3.35,10.85-3.84,10.3-10.36,18.36-20.57,22.84-9.78,4.29-20,4.61-30.42,2.56a44,44,0,0,1-19.09-8.84,41.3,41.3,0,0,1-13.56-19.86,71.86,71.86,0,0,1-.18-46c4.16-12.56,12.34-21.73,24.61-26.93,8.31-3.53,17-4.41,26-3.61s16.87,3.62,23.73,9.34c8.07,6.73,11.78,15.69,12.67,25.91C691.48,145.81,691.22,149.39,691.22,153.24Zm-25.64-4a27.7,27.7,0,0,0,.3-3.4c-.14-3.9-.2-7.82-.6-11.7-.55-5.3-1.4-10.57-3.79-15.44-3.48-7.1-9.76-10-17.31-7.87-5,1.4-8.12,5-10.33,9.44-4.49,8.92-5.56,18.6-5.89,28.41,0,.17.15.34.24.56Z"></path><path class="cls-1" d="M416.53,63.57l40.88-4.85V61.5q0,67.1-.07,134.18c0,3.57,1,6,4,8,3.67,2.4,7.12,5.15,11.09,8.07H416l7.06-5.21c1.52-1.12,3-2.33,4.58-3.31,2.45-1.5,3.26-3.61,3.23-6.4-.09-8.53,0-17.06,0-25.59q0-45.7.06-91.41c0-3.67-.94-6.27-4.16-8.28-3.62-2.27-6.94-5-10.39-7.53Z"></path><path class="cls-1" d="M475.27,63.57l41.39-4.92v2.46q0,67.38-.06,134.75a8.2,8.2,0,0,0,4,7.64c3.71,2.47,7.23,5.24,11.22,8.17h-56.3c.51-.45.83-.8,1.2-1.07,3.41-2.51,6.77-5.08,10.26-7.48a6.82,6.82,0,0,0,3.16-6.23c-.08-20.63-.05-41.27-.05-61.9q0-28,.06-56.05c0-3.12-.88-5.29-3.53-7-3.27-2.12-6.33-4.57-9.48-6.88C476.64,64.7,476.15,64.29,475.27,63.57Z"></path><path class="cls-1" d="M301.48,112.09c-3.24,9.57-6.42,18.94-9.59,28.31l-.57,0q-1.65-3-3.29-6c-3.5-6.47-7.12-12.87-10.42-19.43-1.74-3.45-4.06-5-8-4.84-5,.15-9.68.62-13.9,3.59-7.25,5.11-8.57,16.87-2.52,23.36,4.34,4.66,10.08,7,15.74,9.48,7.36,3.26,14.89,6.26,21.89,10.19,20.3,11.37,16.36,38.46,1,48.48a52.11,52.11,0,0,1-27.09,8.2A100.61,100.61,0,0,1,228.28,208c-.78-.27-1.54-.61-2.46-1,3.36-10.23,6.69-20.33,10.18-30.93.63,1.15,1.1,1.87,1.46,2.65,4.12,9,8.29,17.94,12.3,27,1.06,2.38,2.49,3.76,5.12,4.06,6.36.73,12.57.73,18.44-2.42,10.38-5.56,12.65-21.57.92-28.16-7.52-4.22-15.44-7.73-23.26-11.4-6.93-3.25-13.41-7.07-17.69-13.64-8.49-13.05-6-31.85,9.15-40.88A44.42,44.42,0,0,1,262.92,107a105.57,105.57,0,0,1,37.53,4.76Z"></path><path class="cls-1" d="M593.49,211.74H537.6c.78-.64,1.26-1.08,1.77-1.45,3.37-2.46,6.72-4.93,10.12-7.34a6.21,6.21,0,0,0,2.9-5.55q-.12-36.54,0-73.06a6.33,6.33,0,0,0-2.54-5.35c-4-3.27-8-6.68-12.27-10.32h41.33v2.38q0,42.29-.07,84.57c0,3.57,1,6,4,8,3.7,2.39,7.18,5.14,10.75,7.74Z"></path><path class="cls-1" d="M550.05,80.57A14.27,14.27,0,0,1,564,66h.42a14.44,14.44,0,0,1,15,13.85c0,.21,0,.42,0,.63,0,7.8-6.4,13.89-14.76,14A14.12,14.12,0,0,1,550.06,80.9C550.05,80.79,550.05,80.68,550.05,80.57Z"></path><path class="cls-1" d="M108.68,162.94Q97.43,183.46,86.22,204c-1.37,2.54-3.2,3.84-6,3.8H53.52c-5.09,0-5.37-.24-5.37-5.24q0-61.06,0-122.13a6.71,6.71,0,0,1,3.21-6.19c4.83-3.24,9.55-6.63,14.31-10,.43-.3.82-.66,1.49-1.21h0c-15,0-32.87,19.33-33.35,33.35C34.24,82.38,15.88,63,.41,63h0l-.1.38c4.75,3.32,9.4,6.81,14.3,9.91,3.12,2,4.24,4.38,4.23,8.05-.11,37.31-.06,74.63-.07,111.94v2.35a4.71,4.71,0,0,1-2.31,4.24c-4.89,3.38-9.73,6.83-14.58,10.26C1.33,210.55.8,211,0,211.6H110.1v-51C109.38,161.72,109,162.32,108.68,162.94Z"></path><path class="cls-1" d="M33.87,43.43s-3.06-10.29-7.06-14.29S11,26.84,11,26.84,21.09,20,22.45,15.71,19.75,0,19.75,0,28,7.42,33.87,7.42,48,0,48,0s-4.82,10.6-2.7,15.71S56.7,26.84,56.7,26.84s-11.79-1.69-15.78,2.3S33.87,43.43,33.87,43.43Z"></path><g class="cls-2"><text class="cls-3" transform="translate(246.9 316.21)">c</text><text class="cls-3" transform="translate(280.01 316.21)">ent</text><text class="cls-4" transform="translate(371.84 316.21)">r</text><text class="cls-3" transform="translate(389.03 316.21)">e </text><text class="cls-5" transform="translate(439.52 316.21)">s</text><text class="cls-3" transform="translate(466.09 316.21)">ocioédu</text><text class="cls-3" transform="translate(692.97 316.21)">c</text><text class="cls-3" transform="translate(726.08 316.21)">atif</text></g></g></g></svg>