<?xml version="1.0"?>

<svg version="1.1" id="Layer_1" xmlns="http://www.w3.org/2000/svg" xmlns:xlink="http://www.w3.org/1999/xlink" x="0px" y="0px" viewBox="0 0 114.8 50.5" style="enable-background:new 0 0 114.8 50.5;" xml:space="preserve">

<path class="st0" d="M0,29.4V14h10.9v2.4H2.5v4.7h8v2.3h-8v6L0,29.4z"></path>
<path class="st0" d="M21.1,19.9c1,1.1,1.6,2.5,1.6,4c0,1.5-0.5,2.9-1.5,4c-1.1,1.1-2.6,1.7-4.1,1.6c-1.5,0.1-2.9-0.5-4-1.6&#xA;&#x9;c-1-1.1-1.6-2.5-1.5-4c-0.1-1.5,0.5-3,1.6-4c1.1-1.1,2.5-1.7,4-1.6C18.6,18.2,20.1,18.8,21.1,19.9z M14.7,21.4&#xA;&#x9;c-0.6,0.7-0.9,1.6-0.9,2.6c0,0.9,0.3,1.8,0.9,2.5c0.6,0.7,1.5,1,2.4,1c0.9,0,1.8-0.3,2.4-1c1.2-1.4,1.2-3.6,0-5&#xA;&#x9;c-0.6-0.7-1.5-1-2.4-1C16.2,20.4,15.3,20.8,14.7,21.4z"></path>
<path class="st0" d="M32,29.4v-5.8c0-0.8-0.2-1.6-0.8-2.3c-1.2-1.2-3.2-1.1-4.3,0.1c0,0,0,0,0,0C26.3,22,26,22.8,26,23.7v5.7h-2.2&#xA;&#x9;V18.5h2.1l0.1,1.6c0.9-1.1,2.2-1.7,3.6-1.7c1.3,0,2.5,0.5,3.4,1.4c0.9,1,1.4,2.4,1.3,3.8v5.8L32,29.4z"></path>
<path class="st0" d="M55.6,18.5h2.2v10.8h-2.2l-0.1-1.8c-0.3,0.7-0.9,1.2-1.6,1.5c-0.7,0.3-1.4,0.5-2.2,0.5c-1.5,0.1-2.9-0.5-4-1.5&#xA;&#x9;c-1.1-1.1-1.7-2.7-1.6-4.2c-0.1-1.5,0.5-3.1,1.6-4.1c1.1-1,2.5-1.6,4-1.5c0.8,0,1.5,0.2,2.2,0.5c0.6,0.3,1.2,0.8,1.5,1.4L55.6,18.5z&#xA;&#x9; M49.5,21.3c-0.7,0.7-1,1.6-1,2.6c0,1,0.3,1.9,1,2.6c0.7,0.7,1.6,1,2.5,1c0.6,0,1.2-0.1,1.7-0.4c0.5-0.2,0.9-0.6,1.1-1&#xA;&#x9;c0.3-0.4,0.5-0.9,0.6-1.4c0.1-0.5,0.1-1,0-1.5c-0.1-0.5-0.3-1-0.6-1.4c-0.3-0.4-0.7-0.8-1.1-1c-0.5-0.3-1.1-0.4-1.7-0.4&#xA;&#x9;C51.1,20.4,50.2,20.7,49.5,21.3z"></path>
<path class="st0" d="M63,15.4v3.2h3.2v2H63v5.2c0,1.2,0.5,1.8,1.6,1.8c0.5,0,1-0.2,1.4-0.4l0.6,1.9c-0.7,0.3-1.4,0.5-2.2,0.5&#xA;&#x9;c-1,0.1-2-0.2-2.7-0.9c-0.7-0.8-1-1.8-1-2.9v-5.1h-2.1v-2h2.1v-2.9L63,15.4z"></path>
<path class="st0" d="M67.6,14.1c0.4-0.2,1-0.2,1.4,0c0.5,0.2,0.7,0.7,0.7,1.2c0,0.5-0.2,1-0.7,1.2c-0.4,0.2-1,0.2-1.4,0&#xA;&#x9;c-0.5-0.2-0.7-0.7-0.7-1.2C66.9,14.8,67.1,14.3,67.6,14.1z M67.2,18.5v10.9h2.3V18.5L67.2,18.5z"></path>
<path class="st0" d="M80.2,19.9c1,1.1,1.6,2.5,1.6,4c0,1.5-0.5,2.9-1.6,4c-2.3,2.2-5.8,2.2-8.2,0.1c-1-1.1-1.6-2.5-1.5-4&#xA;&#x9;c0-1.5,0.5-3,1.6-4C74.3,17.8,77.8,17.8,80.2,19.9L80.2,19.9z M73.7,21.4c-1.2,1.5-1.2,3.5,0,5c0.6,0.7,1.5,1,2.4,1&#xA;&#x9;c0.9,0,1.8-0.3,2.4-1c1.2-1.4,1.2-3.6,0-5c-1.3-1.3-3.4-1.4-4.7-0.1C73.8,21.3,73.8,21.4,73.7,21.4L73.7,21.4z"></path>
<path class="st0" d="M91,29.4v-5.8c0-0.8-0.2-1.6-0.8-2.3c-0.6-0.6-1.4-0.9-2.2-0.9c-0.8,0-1.6,0.3-2.2,1C85.3,22,85,22.8,85,23.7&#xA;&#x9;v5.7h-2.2V18.5h2.1l0.1,1.6c0.9-1.1,2.2-1.7,3.7-1.7c1.3,0,2.5,0.5,3.3,1.4c0.9,1,1.4,2.4,1.3,3.8v5.8L91,29.4z"></path>
<path class="st0" d="M57.6,34.6l-6.9,15.9h-2.5l2.2-5.2l-4.3-10.7h2.6l1.9,5.1l1.1,3.1l1.2-3l2.2-5.2L57.6,34.6z"></path>
<path class="st0" d="M66.8,45.5v-5.8c0-0.8-0.2-1.6-0.8-2.3c-1.2-1.2-3.2-1.1-4.3,0.1c-0.6,0.6-0.9,1.5-0.9,2.3v5.7h-2.3V34.6h2.1&#xA;&#x9;l0.1,1.6c0.9-1.1,2.2-1.7,3.7-1.7c1.3,0,2.5,0.5,3.3,1.4c0.9,1,1.4,2.4,1.3,3.8v5.8L66.8,45.5z"></path>
<path class="st0" d="M79.4,34.6h2.2v10.9h-2.2l-0.1-1.8c-0.3,0.7-0.9,1.2-1.6,1.5c-0.7,0.3-1.4,0.5-2.2,0.5c-1.5,0.1-2.9-0.5-4-1.5&#xA;&#x9;c-1.1-1.1-1.7-2.7-1.6-4.2c-0.1-1.5,0.5-3,1.6-4.1c1.1-1,2.5-1.6,4-1.5c0.8,0,1.5,0.2,2.2,0.5c0.6,0.3,1.2,0.8,1.5,1.4L79.4,34.6z&#xA;&#x9; M73.3,37.5c-0.7,0.7-1,1.6-1,2.6c0,1,0.3,1.9,1,2.6c0.7,0.7,1.6,1,2.5,1c0.6,0,1.2-0.1,1.7-0.4c0.5-0.2,0.9-0.6,1.1-1&#xA;&#x9;c0.3-0.4,0.5-0.9,0.6-1.4c0.1-0.5,0.1-1,0-1.5c-0.1-0.5-0.3-1-0.6-1.4c-0.3-0.4-0.7-0.8-1.1-1c-0.5-0.3-1.1-0.4-1.7-0.4&#xA;&#x9;C74.9,36.5,74,36.8,73.3,37.5z"></path>
<path class="st0" d="M89.8,37.3c-0.8-0.7-1.8-1-2.9-1c-0.6,0-1.2,0.1-1.7,0.3c-0.4,0.2-0.6,0.6-0.6,1c0,0.8,0.8,1.2,2.3,1.4&#xA;&#x9;c0.5,0,1.1,0.1,1.6,0.2c0.5,0.1,1,0.3,1.4,0.5c0.5,0.2,0.9,0.6,1.2,1c0.3,0.5,0.4,1.1,0.4,1.7c0,1-0.5,1.9-1.3,2.5&#xA;&#x9;c-1,0.7-2.1,1-3.3,1c-1.9,0.1-3.7-0.6-5-2l1.2-1.6c1,1.1,2.4,1.6,3.8,1.6c0.6,0,1.1-0.1,1.6-0.4c0.4-0.2,0.7-0.6,0.7-1&#xA;&#x9;c0-0.4-0.2-0.8-0.6-1c-0.6-0.3-1.2-0.4-1.9-0.5c-2.9-0.3-4.4-1.4-4.4-3.2c0-1,0.5-2,1.4-2.5c2.3-1.3,5.2-1,7.3,0.6L89.8,37.3z"></path>
<path class="st0" d="M96.1,31.5v3.2h3.2v2h-3.2v5.2c0,1.2,0.5,1.8,1.6,1.8c0.5,0,1-0.1,1.4-0.4l0.7,1.9c-0.7,0.3-1.4,0.5-2.2,0.5&#xA;&#x9;c-1,0.1-2-0.2-2.7-0.9c-0.7-0.8-1.1-1.8-1-2.9v-5.2h-2v-2h2.1v-2.9L96.1,31.5z"></path>
<path class="st0" d="M100.7,30.2c0.4-0.2,1-0.2,1.4,0c0.5,0.2,0.7,0.7,0.7,1.2c0,0.5-0.2,1-0.7,1.2c-0.4,0.2-1,0.2-1.4,0&#xA;&#x9;c-0.5-0.2-0.7-0.7-0.7-1.2C99.9,30.9,100.2,30.4,100.7,30.2z M100.2,34.6v10.9h2.3V34.6H100.2z"></path>
<path class="st0" d="M105.9,40.9c0.1,0.8,0.5,1.5,1.1,2c0.7,0.5,1.6,0.8,2.4,0.8c0.6,0,1.2-0.1,1.8-0.3c0.5-0.2,1-0.5,1.4-0.8&#xA;&#x9;l1.5,1.4c-0.6,0.6-1.3,1.1-2.1,1.3c-0.8,0.3-1.7,0.5-2.6,0.5c-1.6,0.1-3.1-0.5-4.3-1.6c-1.1-1.1-1.7-2.6-1.6-4.2&#xA;&#x9;c-0.1-1.5,0.5-3,1.6-4.1c1.1-1.1,2.6-1.6,4.1-1.6c1.6-0.1,3.1,0.5,4.3,1.6c1.1,1.4,1.5,3.2,1.2,4.9L105.9,40.9z M112.6,39&#xA;&#x9;c0-0.8-0.4-1.5-1-1.9c-1.3-0.9-3.1-0.9-4.4,0c-0.6,0.5-1,1.2-1.1,1.9H112.6z"></path>
<path class="st0" d="M41.8,33.8c0.4-0.1,0.4-0.4,0.4-0.7c0-1.6-2.4-13.7-11.2-29.2c-0.3-0.5-0.4-1.1-0.4-1.7&#xA;&#x9;c0.1-0.8,0.3-1.5,0.7-2.2c0.1,0,0.1,0,0.2,0.2C36.1,7.6,43.1,23,43.1,35.1c0,5.7-2.4,11.1-6.1,13.6c-1.3,1-2.9,1.5-4.5,1.5&#xA;&#x9;c-1.9,0-2.9-0.9-2.9-2.7c0.2-2.1,1-4,2.1-5.7C34.2,38.1,37.7,35.3,41.8,33.8z M32.1,47.6c0,1.2,0.5,1.8,1.4,1.8&#xA;&#x9;c4.1,0,8.8-8.2,8.8-14.2c0-0.6-0.1-1-0.4-1C37.6,35.6,32.1,44.1,32.1,47.6z"></path>
</svg>