<?xml version="1.0"?>
<svg id="Layer_1" data-name="Layer 1" xmlns="http://www.w3.org/2000/svg" viewBox="0 0 892.5 263">
  <defs>
    
  </defs>
  <path class="cls-1" d="M234.22,157.69c-3.65,14.24-10.54,27.19-19.85,37.99-17.29,20.07-42.87,32.76-71.43,32.76-52.04,0-94.22-42.18-94.22-94.22,0-13.45,2.82-26.24,7.95-37.79.19-.46.4-.92.61-1.37.24-.52.48-1.04.73-1.55.23-.51.49-1.02.74-1.53.27-.55.55-1.08.83-1.62.3-.6.63-1.18.95-1.78.34-.6.68-1.2,1.02-1.8.4-.67.8-1.33,1.2-2,0-.02.01-.03.02-.04.42-.66.84-1.33,1.26-1.98.5-.76,1.01-1.52,1.53-2.27.07-.11.14-.21.22-.32.1-.14.19-.26.28-.4.41-.57.82-1.15,1.23-1.71.64-.86,1.29-1.71,1.96-2.55.41-.52.84-1.04,1.27-1.56.43-.53.86-1.04,1.31-1.55,1.96-2.25,4.03-4.41,6.19-6.47,1.07-1.01,2.15-2,3.25-2.96.51-.45,1.04-.89,1.57-1.33.51-.42,1.02-.83,1.54-1.25,1.52-1.2,3.06-2.35,4.64-3.45.95-.67,1.92-1.32,2.9-1.96.49-.31.98-.62,1.48-.93.99-.61,1.99-1.21,3.01-1.79.5-.29,1.01-.57,1.52-.85h.01c.84-.46,1.68-.9,2.53-1.33,1.27-.64,2.56-1.26,3.86-1.85h.01c11.78-5.29,24.85-8.23,38.6-8.23,1.63,0,3.24.04,4.85.12.81.04,1.6.09,2.4.16,1.38.1,2.75.23,4.11.4,1.48.18,2.94.39,4.39.64.74.12,1.47.26,2.2.4.73.14,1.46.29,2.18.45,1.1.24,2.18.5,3.26.78.82.21,1.64.43,2.44.66.1.03.2.06.3.09.08.03.16.05.26.07.47.14.95.28,1.42.44.52.16,1.02.32,1.51.48,12.99,4.3,24.73,11.34,34.52,20.47,7.67,7.1,14.14,15.49,19.08,24.82l-30.04,30.07-21.85,21.85-12.39-2.37-21.81-4.19-2.7-.5,1.11-1.11,40.72-40.72c-2.75-2.4-5.75-4.53-8.92-6.34-3.69-2.11-7.61-3.78-11.68-4.96l-.15-.05c-.54-.15-1.14-.31-1.58-.43l-.06-.02-.06-.02c-.66-.17-1.3-.32-1.88-.45l-.09-.02h-.11c-.29-.08-.58-.14-.87-.2-.34-.07-.67-.13-1.01-.18l-.32-.06-.32-.05c-.65-.12-1.38-.22-2.18-.31l-.2-.03-.19-.03c-.54-.07-1.22-.13-2.06-.2h-.22s-.24-.03-.24-.03c-.09-.02-.3-.03-.67-.04h-.15s-.15-.01-.15-.01c-1.01-.06-1.97-.08-2.85-.08-13.12,0-25.82,4.72-35.75,13.27-.63.55-1.27,1.14-1.96,1.8-1.23,1.17-2.43,2.43-3.56,3.72-.22.24-.43.48-.64.74-.3.37-.6.74-.89,1.1-.34.42-.69.89-1.09,1.44l-.04.04-.02.03c-.22.31-.44.62-.66.93l-.29.41-.03.03-.03.04c-6.38,9.18-9.76,19.96-9.76,31.17,0,1.79.08,3.57.25,5.32l8.15-8.14h.01s3.58-3.59,3.58-3.59l24.29,4.61,12.57,2.42-3.59,3.59-31.75,31.75c6.02,6.9,13.75,12.28,22.52,15.47,22.26,11.17,45.68,4.79,64.21-13.74,6.39-6.39,10.9-13.31,13.71-20.34l31.57,6.03.48.09Z"></path>
  <g>
    <path class="cls-1" d="M320.39,164.89c11.22,0,19.63-5.05,24.12-11.59l16.64,9.72c-8.6,12.72-22.63,20.38-40.95,20.38-30.85,0-50.86-21.13-50.86-49.18s20.01-49.18,49.37-49.18,46.94,22.44,46.94,49.37c0,2.81-.37,5.8-.75,8.42h-74.42c3.18,14.59,14.96,22.07,29.92,22.07ZM345.26,126.37c-2.81-16.08-14.59-23-26.74-23-15.15,0-25.43,8.98-28.24,23h54.98Z"></path>
    <path class="cls-1" d="M464.19,87.47l-36.46,93.5h-23.37l-36.46-93.5h22.07l26.18,71.06,25.99-71.06h22.07Z"></path>
    <path class="cls-1" d="M524.96,85.79v21.88c-13.28-.93-28.8,5.24-28.8,26.18v47.12h-20.2v-93.5h20.2v15.71c5.61-12.72,17.02-17.39,28.8-17.39Z"></path>
    <path class="cls-1" d="M628.94,87.47v93.5h-20.2v-13.46c-7.11,9.91-18.14,15.89-32.72,15.89-25.43,0-46.56-21.5-46.56-49.18s21.13-49.18,46.56-49.18c14.58,0,25.62,5.98,32.72,15.71v-13.28h20.2ZM608.74,134.22c0-17.39-12.72-29.92-29.54-29.92s-29.55,12.53-29.55,29.92,12.72,29.92,29.55,29.92,29.54-12.53,29.54-29.92Z"></path>
  </g>
  <g>
    <path class="cls-1" d="M665.33,103.55h4.83v27.31h-4.83v-27.31Z"></path>
    <path class="cls-1" d="M683.73,127c1.87,0,3.37-.79,4.19-1.87l3.89,2.24c-1.76,2.54-4.56,4-8.15,4-6.28,0-10.25-4.3-10.25-9.88s4-9.88,9.88-9.88c5.54,0,9.46,4.38,9.46,9.88,0,.71-.07,1.35-.19,1.98h-14.1c.67,2.47,2.73,3.52,5.28,3.52ZM687.92,119.75c-.6-2.69-2.62-3.78-4.64-3.78-2.58,0-4.34,1.38-4.9,3.78h9.54Z"></path>
    <path class="cls-1" d="M714.81,112.15v18.7h-4.83v-2.21c-1.35,1.68-3.37,2.73-6.1,2.73-4.98,0-9.09-4.3-9.09-9.88s4.12-9.88,9.09-9.88c2.73,0,4.75,1.05,6.1,2.73v-2.21h4.83ZM709.99,121.51c0-3.14-2.21-5.27-5.2-5.27s-5.16,2.13-5.16,5.27,2.21,5.27,5.16,5.27,5.2-2.13,5.2-5.27Z"></path>
    <path class="cls-1" d="M738,104.67v26.18h-4.83v-2.21c-1.35,1.72-3.33,2.73-6.06,2.73-5.01,0-9.13-4.3-9.13-9.88s4.12-9.88,9.13-9.88c2.73,0,4.71,1.01,6.06,2.73v-9.69h4.83ZM733.18,121.51c0-3.14-2.21-5.27-5.16-5.27s-5.2,2.13-5.2,5.27,2.21,5.27,5.2,5.27,5.16-2.13,5.16-5.27Z"></path>
    <path class="cls-1" d="M751.58,127c1.87,0,3.37-.79,4.19-1.87l3.89,2.24c-1.76,2.54-4.56,4-8.15,4-6.28,0-10.25-4.3-10.25-9.88s4-9.88,9.88-9.88c5.54,0,9.46,4.38,9.46,9.88,0,.71-.07,1.35-.19,1.98h-14.1c.67,2.47,2.73,3.52,5.27,3.52ZM755.77,119.75c-.6-2.69-2.62-3.78-4.64-3.78-2.58,0-4.34,1.38-4.9,3.78h9.54Z"></path>
    <path class="cls-1" d="M774.28,111.78v5.39c-2.51-.3-5.69.82-5.69,4.75v8.94h-4.83v-18.7h4.83v3.22c.97-2.54,3.33-3.59,5.69-3.59Z"></path>
    <path class="cls-1" d="M790.4,125.4c0,4.04-3.52,5.99-7.52,5.99-3.74,0-6.51-1.57-7.86-4.45l4.19-2.36c.52,1.53,1.8,2.43,3.67,2.43,1.53,0,2.58-.52,2.58-1.61,0-2.73-9.65-1.23-9.65-7.82,0-3.82,3.26-5.95,7.11-5.95,3.03,0,5.65,1.38,7.11,3.97l-4.11,2.24c-.56-1.2-1.61-1.91-2.99-1.91-1.2,0-2.17.52-2.17,1.53,0,2.77,9.65,1.05,9.65,7.93Z"></path>
    <path class="cls-1" d="M810.79,119.37v11.48h-4.83v-10.89c0-2.54-1.53-3.85-3.7-3.85-2.36,0-4.12,1.38-4.12,4.64v10.1h-4.83v-26.18h4.83v9.58c1.12-1.68,3.07-2.62,5.57-2.62,3.96,0,7.07,2.77,7.07,7.74Z"></path>
    <path class="cls-1" d="M814.15,106.95c0-1.61,1.35-2.99,2.95-2.99s2.99,1.38,2.99,2.99-1.35,2.96-2.99,2.96-2.95-1.35-2.95-2.96ZM814.71,112.15h4.83v18.7h-4.83v-18.7Z"></path>
    <path class="cls-1" d="M843.78,121.51c0,5.57-4.11,9.88-9.13,9.88-2.73,0-4.71-1.01-6.06-2.73v9.69h-4.83v-26.18h4.83v2.21c1.35-1.72,3.33-2.73,6.06-2.73,5.01,0,9.13,4.3,9.13,9.88ZM838.95,121.51c0-3.14-2.21-5.27-5.2-5.27s-5.16,2.13-5.16,5.27,2.21,5.27,5.16,5.27,5.2-2.13,5.2-5.27Z"></path>
    <path class="cls-1" d="M679.43,158.9c0,4.04-3.52,5.99-7.52,5.99-3.74,0-6.51-1.57-7.86-4.45l4.19-2.36c.52,1.53,1.8,2.43,3.67,2.43,1.53,0,2.58-.52,2.58-1.61,0-2.73-9.65-1.23-9.65-7.82,0-3.82,3.26-5.95,7.11-5.95,3.03,0,5.65,1.38,7.11,3.97l-4.11,2.24c-.56-1.2-1.61-1.91-2.99-1.91-1.2,0-2.17.52-2.17,1.53,0,2.77,9.65,1.05,9.65,7.93Z"></path>
    <path class="cls-1" d="M681.11,155.01c0-5.57,4.38-9.88,9.88-9.88s9.91,4.3,9.91,9.88-4.41,9.88-9.91,9.88-9.88-4.3-9.88-9.88ZM696.07,155.01c0-3.03-2.21-5.16-5.09-5.16s-5.05,2.13-5.05,5.16,2.21,5.16,5.05,5.16,5.09-2.13,5.09-5.16Z"></path>
    <path class="cls-1" d="M704.11,137.06h4.83v27.31h-4.83v-27.31Z"></path>
    <path class="cls-1" d="M730.33,145.66v18.7h-4.83v-2.09c-1.12,1.68-3.07,2.62-5.57,2.62-3.96,0-7.07-2.77-7.07-7.74v-11.48h4.82v10.89c0,2.54,1.53,3.85,3.7,3.85,2.36,0,4.11-1.38,4.11-4.64v-10.1h4.83Z"></path>
    <path class="cls-1" d="M741.03,150.3v7.78c0,2.02,1.46,2.06,4.23,1.91v4.38c-6.77.75-9.05-1.23-9.05-6.28v-7.78h-3.25v-4.64h3.25v-3.78l4.83-1.46v5.24h4.23v4.64h-4.23Z"></path>
    <path class="cls-1" d="M747.91,140.46c0-1.61,1.35-2.99,2.96-2.99s2.99,1.38,2.99,2.99-1.35,2.96-2.99,2.96-2.96-1.35-2.96-2.96ZM748.47,145.66h4.83v18.7h-4.83v-18.7Z"></path>
    <path class="cls-1" d="M756.55,155.01c0-5.57,4.38-9.88,9.88-9.88s9.91,4.3,9.91,9.88-4.41,9.88-9.91,9.88-9.88-4.3-9.88-9.88ZM771.51,155.01c0-3.03-2.21-5.16-5.09-5.16s-5.05,2.13-5.05,5.16,2.21,5.16,5.05,5.16,5.09-2.13,5.09-5.16Z"></path>
    <path class="cls-1" d="M797.02,152.88v11.48h-4.83v-10.89c0-2.54-1.53-3.85-3.7-3.85-2.36,0-4.11,1.38-4.11,4.64v10.1h-4.83v-18.7h4.83v2.09c1.12-1.68,3.07-2.62,5.57-2.62,3.97,0,7.07,2.77,7.07,7.74Z"></path>
    <path class="cls-1" d="M815.05,158.9c0,4.04-3.52,5.99-7.52,5.99-3.74,0-6.51-1.57-7.86-4.45l4.19-2.36c.52,1.53,1.8,2.43,3.67,2.43,1.53,0,2.58-.52,2.58-1.61,0-2.73-9.65-1.23-9.65-7.82,0-3.82,3.25-5.95,7.11-5.95,3.03,0,5.65,1.38,7.11,3.97l-4.12,2.24c-.56-1.2-1.61-1.91-2.99-1.91-1.2,0-2.17.52-2.17,1.53,0,2.77,9.65,1.05,9.65,7.93Z"></path>
  </g>
</svg>