<?xml version="1.0"?>
<svg id="Layer_1" xmlns="http://www.w3.org/2000/svg" version="1.1" viewBox="0 0 1211 361">
  
  <defs>
    
  </defs>
  <path class="st0" d="M1089.1,33.9c-45.8,0-83,37.2-83,83s2.5,23.4,7.1,33.7h20.9l-15.1,10.8c10.5,16.6,26.9,29.3,46.2,35.1-.6-7.9-2-15.8-4.2-23.6l-3.8-12.9,55.5-12.1v48.6c34.3-10.2,59.4-42,59.4-79.6s-37.2-83-83-83ZM1108.9,135.5c-5,5-11.6,7.5-19.8,7.5s-14.8-2.5-19.8-7.5-7.5-11.2-7.5-18.5,2.5-13.5,7.5-18.6c5-5.1,11.6-7.6,19.8-7.6s14.8,2.5,19.8,7.6c5,5.1,7.5,11.3,7.5,18.6s-2.5,13.5-7.5,18.5Z"></path>
  <path class="st0" d="M184.2,230.7c4.3,9.1,8.1,17,11.4,23.7,3.3,6.7,6.7,13,10.2,19,3.5,6,7.3,12,11.5,18.1,4.2,6.1,9.3,13,15.4,20.9h-73.7c-1.6-8.6-3.3-16-5.1-22.2-1.8-6.2-3.8-12.3-5.9-18.1-2.1-5.8-4.6-11.7-7.4-17.7-2.8-6-6-13-9.8-21-6.3-2.3-11.7-5.8-16.3-10.3-4.7-4.6-8.4-9.9-11.3-15.9v51.7c0,9.6.9,18.7,2.8,27.2,1.9,8.5,4.2,17.3,6.8,26.4H38.9c2.7-9.1,5-18,6.8-26.5,1.9-8.6,2.8-17.6,2.8-27.1v-80.9c0-9.5-.9-18.5-2.8-27.1-1.9-8.6-4.2-17.3-6.8-26.3h114.7c7.9,0,15.8,1,23.9,2.9,8,2,15.4,5,22.1,9.3,6.7,4.2,12.1,9.5,16.4,15.9,4.2,6.4,6.3,14.2,6.3,23.3,0,13-3.3,24.2-9.8,33.6s-15.9,16.4-28.3,21h0ZM103.3,172.5c0,6.1.8,12.5,2.3,19.3,1.5,6.8,3.9,13.1,7.2,18.9,3.3,5.8,7.5,10.6,12.7,14.5,5.2,3.8,11.3,5.8,18.5,5.8s10.4-1.1,13.9-3.2c3.6-2.1,6.3-5,8.3-8.6,2-3.6,3.3-7.6,4-12.2.7-4.6,1.1-9.1,1.1-13.8,0-9.3-1.1-17.9-3.2-25.9-2.1-7.9-5.5-14.9-10.1-20.8-4.6-5.9-10.4-10.5-17.6-13.8-7.1-3.3-15.7-5-25.7-5s-7.8.3-11.5.8v43.9h0Z"></path>
  <path class="st0" d="M381.4,266c4.8,8.6,10.2,16.6,16.1,24,5.9,7.4,12.1,14.9,18.5,22.4h-63.8c-2.1-7.7-4.4-14.6-6.8-20.8s-5-12.1-7.8-18c-2.8-5.8-5.8-11.7-9-17.5-3.2-5.9-6.9-12.4-11-19.6-.4,8-1.4,16.6-3.2,25.7-1.8,9.1-4.7,17.5-8.7,25.3-4,7.8-9.3,14.2-16,19.4-6.6,5.2-14.9,7.8-24.9,7.8s-18.1-3-24.7-9c-6.6-6-9.9-14.1-9.9-24.2s.6-8.1,1.9-12.1c1.2-3.9,2.9-7.7,5.1-11.3l47.4-78.3c-3.8-5.2-7.7-10.2-11.8-15.1-4.1-4.9-8.2-9.8-12.3-14.6h55.5l65.4,115.8h0ZM278,280.2c6.6,0,12.2-1.4,16.8-4.3,4.6-2.9,8.3-6.6,11.3-11.1s5.2-9.6,6.7-15.3c1.5-5.6,2.5-11.2,2.8-16.8-4.6-8.4-9.2-16.8-13.8-25.1-4.6-8.3-9.5-16.4-14.9-24.2-2.9,4.8-6.2,10.1-9.9,15.7-3.8,5.6-7.3,11.5-10.7,17.7-3.4,6.2-6.2,12.4-8.4,18.6-2.2,6.3-3.4,12.5-3.4,18.8s2,13.7,5.9,18.6c3.9,4.9,9.8,7.4,17.7,7.4h0Z"></path>
  <path class="st0" d="M708.9,266.3c0,11.1,1.5,22.2,4.6,33.2l3.8,12.9h-63.8l3.5-12.9c3.2-10.7,4.8-21.8,4.8-33.2v-41c0-10.9-.5-20.6-1.5-29.1-1-8.5-2.7-15.7-5.2-21.6-2.5-5.9-5.8-10.4-9.9-13.4s-9.4-4.6-15.8-4.6-12.6,1.6-17.5,5c-4.9,3.3-9,7.9-12.2,13.9-3.2,6-5.6,13.2-7.1,21.6-1.5,8.4-2.3,17.8-2.3,28.1v41c0,11.1,1.5,22.2,4.6,33.2l3.8,12.9h-63.8l3.8-12.9c3-11.1,4.6-22.1,4.6-33.2v-41c0-10.4-.5-19.7-1.5-28.1s-2.7-15.6-5.1-21.6c-2.4-6-5.7-10.6-9.9-13.9-4.2-3.3-9.4-5-15.7-5s-12.9,1.6-17.8,5c-4.9,3.3-9,7.9-12.2,13.9-3.2,6-5.6,13.2-7.1,21.7-1.5,8.5-2.3,17.8-2.3,28v41c0,11.1,1.5,22.2,4.6,33.2l3.8,12.9h-63.8l3.8-12.9c3-11.1,4.6-22.1,4.6-33.2v-60c0-11.3-1.5-22.4-4.6-33.5l-3.8-12.9,55.5-12.1v42.6c1.2-5.5,3-10.9,5.4-15.9,2.3-5.1,5.5-9.6,9.4-13.5s8.7-7.1,14.3-9.5,12.5-3.6,20.5-3.6,19.7,1.5,27.5,4.4c7.8,2.9,14.3,7,19.7,12.1s9.7,11,12.9,17.7c3.2,6.7,5.5,13.7,7,21,.7-6.6,2-13.2,4-19.7,2-6.5,4.9-12.4,8.7-17.7s8.9-9.6,15.3-12.9c6.3-3.3,14.2-5,23.7-5s24.2,2.3,33.1,6.8c8.8,4.6,16,10.5,21.3,18s9.2,15.7,11.4,24.9c2.2,9.2,3.3,18.4,3.3,27.7v41h0Z"></path>
  <path class="st0" d="M757.5,215.4c1.6,9.1,4.6,18.4,8.8,27.7,4.3,9.4,9.7,17.8,16.2,25.3,6.5,7.5,14.1,13.7,22.7,18.5,8.6,4.8,18,7.2,28.1,7.2s16.3-2,23-6,12.6-9.4,17.4-16.2l1.9,1.1c-7.9,13.9-17.1,24.4-27.7,31.5s-24.2,10.6-40.6,10.6-23.6-2-34.4-5.9-20.2-9.6-28.3-16.9c-8-7.3-14.4-16.1-19.2-26.4-4.7-10.3-7.1-21.7-7.1-34.2s2.4-24.2,7.1-34.4c4.7-10.3,11.1-19,19.2-26.3,8-7.2,17.5-12.9,28.3-16.9s22.3-6,34.4-6,15.1,1.3,22.9,4c7.8,2.7,14.8,6.4,21.2,11.3,6.3,4.8,11.5,10.6,15.4,17.4s5.9,14.4,5.9,22.8-1.3,15.3-3.9,21.8-6.2,12.1-10.8,16.8-10.3,8.2-16.9,10.7c-6.6,2.5-13.8,3.8-21.7,3.8s-13.4-.9-19.7-2.8c-6.3-1.9-12.2-4.6-17.7-8.2-5.5-3.6-10.3-7.9-14.5-13-4.2-5.1-7.5-10.9-10-17.3h0ZM755.4,198.2c0,6.6,1.7,13,5.2,19.3,3.5,6.3,7.9,11.8,13.3,16.6,5.4,4.8,11.4,8.7,18.1,11.7s13.3,4.4,19.7,4.4,10.6-1,14.6-3.1c4-2.1,7.3-4.8,9.9-8.3,2.6-3.5,4.5-7.5,5.8-12.1s1.9-9.4,1.9-14.6c0-7.5-1.5-14.7-4.4-21.7-3-7-7-13.1-12.1-18.4s-11-9.5-17.8-12.6c-6.8-3.1-14-4.7-21.7-4.7s-11.8,1.2-16,3.8-7.5,5.8-9.9,9.8-4.1,8.6-5.1,13.8c-1,5.2-1.5,10.5-1.5,16.1h0Z"></path>
  <path class="st0" d="M1057.3,312.4h-63.8l-2.4-12.9c-.9-5.4-2.3-10.8-4.3-16.3-2-5.5-4.3-11.2-7-16.9l-24.7-51.7-21.4,19.3v32.4c0,11.1,1.5,22.2,4.6,33.2l3.8,12.9h-63.8l3.8-12.9c3-11.1,4.6-22.2,4.6-33.2v-116c0-11.1-1.5-22.2-4.6-33.5l-3.8-12.9,55.5-11.8v137.2l35.9-32.7c12.3-11.1,23-22.2,32.2-33.5l10.5-12.6h.9c1.7,3.7,3.6,7.3,5.8,10.8l-2.6,1.8c-5,3.6-9.8,7.2-14.5,10.9-4.6,3.7-9.2,7.4-13.7,11.1l38.9,81.2c5.4,11.4,12.2,22.5,20.6,33.2l9.5,12.7h0s.1.2.1.2Z"></path>
  <path class="st0" d="M1120.9,312.4h-63.8v-.2c0,0,3.8-12.7,3.8-12.7,3-11.1,4.6-22.1,4.6-33.2v-60c0-3.3-.1-6.6-.4-9.9,7.6,2.3,15.6,3.5,24,3.5s16.1-1.2,23.6-3.4v69.8h0c0,11.1,1.5,22.1,4.6,33.2l3.8,12.9Z"></path>
</svg>