<svg xmlns="http://www.w3.org/2000/svg" viewBox="0 0 140.75 121.73"><defs></defs><g id="Layer_2" data-name="Layer 2"><g id="Layer_1-2" data-name="Layer 1"><polygon class="cls-1" points="70.31 14.38 65.52 0 65.5 0.06 65.48 0 62.41 0 46.08 49.72 32.81 0 11.88 0 34.85 76.98 40.98 76.98 19.7 5.83 28.33 5.83 47.37 76.98 55.27 76.98 67.38 41.23 64.31 32.11 51.43 70.12 48.79 60.15 64.07 13.65 69.91 30.73 69.91 30.73 85.55 76.98 91.58 76.98 70.33 14.32 70.31 14.38"></polygon><polygon class="cls-1" points="107.95 0 97.31 39.84 100.69 49.81 112.43 5.83 121.05 5.83 101.96 69.81 101.84 71.31 78.27 0 72.17 0 74.09 5.83 74.12 5.83 90.52 55.77 90.51 55.81 97.47 76.98 99.53 76.98 103.71 76.98 105.91 76.98 128.88 0 107.95 0"></polygon><path class="cls-1" d="M16.72,99.63h-6v15.85H6.08V99.63H0v-4H16.72Z"></path><path class="cls-1" d="M22.4,115.76a8.44,8.44,0,0,1-3.35-.62,7.21,7.21,0,0,1-2.47-1.66A6.82,6.82,0,0,1,15.05,111a8.32,8.32,0,0,1,0-5.79,6.82,6.82,0,0,1,1.53-2.44,7.4,7.4,0,0,1,2.47-1.68,8.44,8.44,0,0,1,3.35-.63,8.31,8.31,0,0,1,3.33.63,7.61,7.61,0,0,1,2.47,1.68,7.28,7.28,0,0,1,1.54,2.44,8.09,8.09,0,0,1,.53,2.89,8.32,8.32,0,0,1-.52,2.9,7,7,0,0,1-1.53,2.44,7.21,7.21,0,0,1-2.47,1.66A8.44,8.44,0,0,1,22.4,115.76Zm-3.28-7.62a4.05,4.05,0,0,0,.93,2.79,3,3,0,0,0,2.35,1,2.93,2.93,0,0,0,1.29-.28,3.23,3.23,0,0,0,1-.78,3.81,3.81,0,0,0,.69-1.22,4.9,4.9,0,0,0,.25-1.56,4,4,0,0,0-.93-2.78,3.11,3.11,0,0,0-3.62-.77,3.2,3.2,0,0,0-1,.78,3.61,3.61,0,0,0-.68,1.22A4.58,4.58,0,0,0,19.12,108.14Z"></path><path class="cls-1" d="M55.72,115.48H51.24v-8.26a3.39,3.39,0,0,0-.53-2.11,1.69,1.69,0,0,0-1.37-.66,2.29,2.29,0,0,0-.91.19,3.4,3.4,0,0,0-.86.55,4.69,4.69,0,0,0-1.23,1.86v8.43H41.86v-8.26a3.39,3.39,0,0,0-.53-2.11,1.69,1.69,0,0,0-1.37-.66,2.72,2.72,0,0,0-1.75.71A4.11,4.11,0,0,0,37,107.05v8.43H32.48v-14.7h4v2.46a5.4,5.4,0,0,1,2.2-2,7,7,0,0,1,3.23-.7,5.12,5.12,0,0,1,1.61.23,3.62,3.62,0,0,1,1.19.61,3.36,3.36,0,0,1,.82.91,4.08,4.08,0,0,1,.44,1.11,5.79,5.79,0,0,1,2.22-2.12,6.52,6.52,0,0,1,3.13-.74,4.3,4.3,0,0,1,2.26.52,3.79,3.79,0,0,1,1.33,1.34,5.56,5.56,0,0,1,.63,1.81,12.56,12.56,0,0,1,.15,1.9Z"></path><path class="cls-1" d="M71.2,95.63h4.23l2,6.35,2-6.35h4.26l-3.33,9.24,2,5.35,5-14.62h5l-8,19.88H80.61l-3.16-7.78-3.14,7.78H70.45L62.52,95.6h5l5,14.62,2-5.35Z"></path><path class="cls-1" d="M96.54,115.76a5.89,5.89,0,0,1-2-.35A4.63,4.63,0,0,1,91.84,113a4.44,4.44,0,0,1-.39-1.87,4.22,4.22,0,0,1,.46-2,4.56,4.56,0,0,1,1.3-1.54,6.32,6.32,0,0,1,2-1,8.45,8.45,0,0,1,2.55-.36,10.55,10.55,0,0,1,1.79.15,6,6,0,0,1,1.51.46v-.67q0-2.55-2.94-2.55a6.5,6.5,0,0,0-2.29.41,10.92,10.92,0,0,0-2.3,1.21l-1.32-2.8a11.59,11.59,0,0,1,3-1.42,11.26,11.26,0,0,1,3.33-.48,7.62,7.62,0,0,1,5.15,1.57,5.72,5.72,0,0,1,1.82,4.59v3.78a1.57,1.57,0,0,0,.21.94,1,1,0,0,0,.74.32v3.78a6.72,6.72,0,0,1-1.06.18c-.32,0-.61,0-.87,0a3.15,3.15,0,0,1-1.9-.48,2.22,2.22,0,0,1-.82-1.39l-.08-.67a6.66,6.66,0,0,1-2.34,1.93A6.34,6.34,0,0,1,96.54,115.76Zm1.32-3.22a4,4,0,0,0,1.41-.25,3.34,3.34,0,0,0,1.14-.67,1.39,1.39,0,0,0,.64-1.07v-1.4a7.85,7.85,0,0,0-1.27-.35,7.44,7.44,0,0,0-1.28-.12,3.4,3.4,0,0,0-2,.56,1.71,1.71,0,0,0-.8,1.45,1.66,1.66,0,0,0,.62,1.33A2.32,2.32,0,0,0,97.86,112.54Z"></path><path class="cls-1" d="M123,115.48h-4.48v-8.26a3.25,3.25,0,0,0-.55-2.11,1.77,1.77,0,0,0-1.44-.66,2.44,2.44,0,0,0-1,.19,4.45,4.45,0,0,0-.93.55,3.9,3.9,0,0,0-.79.83,3.65,3.65,0,0,0-.55,1v8.43h-4.48v-14.7h4v2.46a5.34,5.34,0,0,1,2.3-2,7.73,7.73,0,0,1,3.41-.72,4.4,4.4,0,0,1,2.3.52,3.59,3.59,0,0,1,1.34,1.34,5.13,5.13,0,0,1,.63,1.81,11.42,11.42,0,0,1,.16,1.9Z"></path><path class="cls-1" d="M131.63,115.54A6,6,0,0,1,129,115a6.23,6.23,0,0,1-2.06-1.6,7.4,7.4,0,0,1-1.33-2.35,9,9,0,0,1,0-5.89,7.28,7.28,0,0,1,1.4-2.41,6.37,6.37,0,0,1,2.15-1.61,6.52,6.52,0,0,1,2.77-.59,5.76,5.76,0,0,1,2.93.72,5.4,5.4,0,0,1,2,2v-2.41h3.89v13.69a7.08,7.08,0,0,1-.63,3,6.61,6.61,0,0,1-1.74,2.28,8,8,0,0,1-2.69,1.44,11.15,11.15,0,0,1-3.45.51,9.94,9.94,0,0,1-4.06-.76,8.46,8.46,0,0,1-2.94-2.19l2.41-2.43a5.83,5.83,0,0,0,2,1.47,6.2,6.2,0,0,0,2.57.54,5.17,5.17,0,0,0,1.54-.22,3.65,3.65,0,0,0,1.29-.69,3,3,0,0,0,.88-1.2,4.35,4.35,0,0,0,.33-1.78v-1.42a4.41,4.41,0,0,1-1.94,1.86A6,6,0,0,1,131.63,115.54Zm1.54-3.56a3.11,3.11,0,0,0,1.84-.57,4,4,0,0,0,1.27-1.47v-3.08A4.05,4.05,0,0,0,134.9,105a3.26,3.26,0,0,0-2-.68,2.84,2.84,0,0,0-1.33.32,3.44,3.44,0,0,0-1,.87,3.8,3.8,0,0,0-.67,1.26,4.57,4.57,0,0,0-.24,1.47,4.3,4.3,0,0,0,.26,1.5,3.8,3.8,0,0,0,.74,1.19,3.6,3.6,0,0,0,1.11.78A3.32,3.32,0,0,0,133.17,112Z"></path></g></g></svg>